<svg width="169" height="1388" viewBox="0 0 169 1388" fill="none" xmlns="http://www.w3.org/2000/svg">
<path fill-rule="evenodd" clip-rule="evenodd" d="M80.6679 48.327C80.3439 50.4528 80.3439 53.9317 80.6679 56.0575C80.9919 58.1777 81.2555 56.441 81.2555 52.1895C81.2555 47.9435 80.9919 46.2013 80.6679 48.327ZM27.9163 652.118C40.6444 640.438 50.4064 637.664 55.4526 644.101C56.0894 644.914 56.6511 645.873 57.1342 646.979C57.5715 647.981 57.9373 648.94 58.2304 649.858C60.9743 658.451 57.3435 663.436 46.2929 666.713C28.9928 671.836 0.94464 666.313 15.8447 660.719C18.3601 659.772 23.7917 655.904 27.9163 652.118ZM32.7713 413.46C43.2722 407.538 48.3854 406.705 52.0101 410.321C54.8857 413.19 55.953 415.778 55.5302 417.86C54.6239 422.323 46.8696 424.462 35.4021 422.056C22.6714 419.388 22.611 419.186 32.7713 413.46Z" fill="url(#paint0_linear_704_13)"/>
<path d="M55.4526 644.101C56.0894 644.914 56.6511 645.873 57.1342 646.979C57.5715 647.981 57.9373 648.94 58.2304 649.858C61.8065 647.115 63.4288 646.803 65.9747 647.358C66.3812 645.509 66.7765 643.735 67.1244 642.207C67.5304 640.423 67.9204 638.69 68.2944 637.008C65.0318 641.214 62.0897 642.661 55.4526 644.101Z" fill="url(#paint1_linear_704_13)"/>
<path fill-rule="evenodd" clip-rule="evenodd" d="M153.35 397.26C155.635 400.459 160.402 405.489 163.944 408.436C171.221 414.507 170.81 416.101 161.621 417.378C155.459 418.232 153.427 423.218 158.068 426.078C158.996 426.653 159.276 427.595 158.694 428.176C157.288 429.573 144.711 426.176 143.344 424.034C142.756 423.108 142.262 422.818 142.251 423.388C142.24 423.958 140.169 423.169 137.654 421.635C131.794 418.073 130.668 418.128 131.217 421.952C131.536 424.155 132.953 425.322 136.078 425.952C141.767 427.108 148.6 434.663 151.4 442.903C153.482 449.039 156.607 476.098 155.459 478.049C155.163 478.542 155.91 481.297 157.107 484.168C159.71 490.381 159.337 491.028 154.251 489.105C151.516 488.064 150.648 486.973 151.274 485.352C152.01 483.434 151.801 483.357 149.989 484.853C148.155 486.376 146.315 485.149 137.764 476.684C132.169 471.148 129.312 467.966 127.439 468.465C125.177 469.067 124.353 475.041 121.881 488.727C119.821 500.122 117.602 511.825 116.949 514.729C115.839 519.687 115.993 520.059 119.497 520.887C127.257 522.711 129.558 526.524 129.558 537.569C129.558 543.108 130.487 550.713 131.618 554.466C132.749 558.224 133.458 561.517 133.194 561.785C131.53 563.44 124.407 559.446 118.261 553.408C114.318 549.535 110.907 546.598 110.688 546.878C110.462 547.151 107.898 557.813 104.981 570.562C102.065 583.311 98.4842 598.207 97.0178 603.664C92.8053 619.328 92.9372 727.664 97.1661 730.71C100.912 733.4 100.956 739.136 97.232 739.136C93.6676 739.136 93.2776 741.788 92.1627 773.646L91.2731 799.024L97.9899 800.338C103.866 801.484 105.327 802.53 109.611 808.672C112.308 812.534 118.975 820.752 124.429 826.938L134.342 838.174L127.834 838.596C122.27 838.958 98.8082 834.197 91.295 831.178C88.6479 830.115 88.1096 833.101 86.0116 860.653C85.1512 871.893 84.5882 875.29 85.9623 876.503C86.7898 877.234 88.3199 877.172 90.9106 877.555C101.9 879.177 107.024 882.585 107.024 888.261C107.024 893.148 115.317 890.737 122.023 883.894L126.395 879.434L127.318 884.36C129.13 893.997 124.357 904.708 114.466 913.183L107.727 918.958L112.873 923.828C115.702 926.513 120.458 929.608 123.435 930.71C141.498 937.41 145.15 939.503 142.58 941.678C138.219 945.376 130.201 948.351 122.007 949.31C114.878 950.148 113.933 950.641 113.203 953.912C112.753 955.934 111.89 959.533 111.292 961.922C110.061 966.787 126.373 983.059 137.412 987.973L142.564 990.269L134.6 993.243C122.441 997.78 108.304 995.955 100.417 988.833C97.3418 986.055 97.3253 986.055 92.6735 988.86C90.1087 990.411 86.6872 992.076 85.067 992.564L82.1177 993.452L84.6825 981.837C88.3073 965.406 88.17 962.497 83.7873 962.497C81.3928 962.497 80.2559 963.286 80.223 964.957C80.1955 966.31 79.8001 975.158 79.3387 984.625C78.4765 1002.56 78.7675 1003.43 84.364 999.517C93.6017 993.063 105.448 1002.05 107.909 1017.37C108.837 1023.19 108.826 1023.21 105.47 1021.48C102.202 1019.79 102.175 1019.82 104.591 1022.37C105.959 1023.83 110.32 1030.07 114.279 1036.25C118.234 1042.43 122.183 1048 123.05 1048.62C124.588 1049.72 113.944 1049.29 109.957 1048.09C108.612 1047.69 107.524 1049.23 106.634 1052.82C104.833 1060.07 103.757 1059.35 91.0094 1042.49C84.9077 1034.42 79.5199 1027.82 79.0366 1027.82C77.9602 1027.82 75.8568 1082.81 76.774 1087.02C77.1529 1088.75 78.9158 1090.4 80.9424 1090.91C86.9837 1092.42 93.382 1110.33 98.4238 1139.85C99.0204 1143.35 99.3912 1145.34 98.6793 1145.86C97.7332 1146.56 94.8749 1144.65 88.0931 1140.2C82.7822 1136.73 77.9987 1133.88 77.4605 1133.88C72.9295 1133.88 79.5566 1213.5 80.9864 1225.22C87 1274.5 85.5 1274.5 93.5 1313C93.5659 1314.16 76.0821 1308.91 76.0821 1308.91C70.8081 1272.41 62.0607 1244 51.2576 1191.83L49.006 1181.64L44.2168 1181.64C38.527 1181.64 38.159 1179.92 42.9481 1175.77C45.1504 1173.86 46.4686 1171.22 46.4686 1168.75C46.4686 1164.52 44.486 1163.41 43.1459 1166.9C42.5253 1168.51 39.8506 1169.01 31.6454 1169.01C19.5628 1169.01 19.2937 1168.18 29.3112 1161.84C36.6157 1157.22 39.6694 1156.8 42.8493 1159.97C45.8809 1163 45.8041 1161.12 42.1518 1143.26C39.9906 1132.68 39.3238 1128.99 38.0864 1128.79C37.3648 1128.67 36.4491 1129.74 34.9297 1131.31C31.629 1134.74 23.8851 1140.11 23.4677 1139.26C21.0457 1134.39 25.1537 1091.55 28.449 1087.24L32.2495 1082.27L29.3278 1057.15C24.0334 1011.65 21.6389 939.843 25.4943 942.22C26.3511 942.746 25.9611 941.519 24.6265 939.492C23.2974 937.465 21.3807 935.805 20.3756 935.805C19.3651 935.805 18.2777 935.334 17.9481 934.753C17.6241 934.172 17.5583 934.512 17.8054 935.503C18.0526 936.49 16.8387 937.837 15.1087 938.489C11.4675 939.87 1.97126e-05 941.349 1.97524e-05 940.44C1.98506e-05 938.193 9.03447 927.357 10.9787 927.269C12.2968 927.209 12.6373 926.853 11.7311 926.486C9.17731 925.445 15.0318 913.391 20.6008 908.225C24.4068 904.691 25.346 902.746 25.3515 898.391C25.3515 895.405 26.3566 883.795 27.5813 872.592C28.8061 861.388 30.0252 848.431 30.2944 843.796C30.5635 839.155 31.0963 834.416 31.4752 833.26C31.8542 832.099 32.4692 828.307 32.8427 824.828C33.2162 821.349 34.5452 812.501 35.7974 805.16C37.0441 797.824 38.4007 789.759 38.8126 787.25C39.6969 781.821 38.2414 781.492 30.19 785.321C19.6672 790.323 18.2942 790.4 19.6617 785.913C24.9451 768.578 35.067 749.469 44.4366 739.136C47.4352 735.832 51.1533 721.823 53.1415 706.33L53.8335 700.917L42.7614 701.859C23.0668 703.53 22.5395 702.336 36.6158 687.932C43.1953 681.199 51.5652 673.753 55.212 671.392C61.2588 667.475 61.9893 666.395 63.4447 659.213C64.0596 656.203 65.0464 651.582 65.9747 647.358C66.3812 645.509 66.7765 643.735 67.1244 642.207C67.5304 640.423 67.9204 638.69 68.2944 637.008C73.2828 614.569 75.4297 601.137 74.9341 595.495L74.3519 588.822L67.1024 588.801C54.3388 588.762 55.7942 583.021 70.4855 575.438C74.1927 573.526 74.7035 572.562 74.4289 567.971C74.2586 565.072 74.5607 561.982 75.1044 561.106C75.6481 560.235 75.4449 559.117 74.6595 558.635C73.8741 558.147 73.226 555.89 73.226 553.622C73.226 551.699 73.2902 550.487 72.741 550.06C71.8174 549.343 69.1592 550.848 61.5444 554.937C55.9644 557.934 48.2315 561.122 44.3596 562.026C40.4877 562.925 36.2094 563.993 34.8528 564.398C33.304 564.859 32.3869 564.377 32.3869 563.1C32.3869 561.517 30.9534 561.232 25.8677 561.807C22.7104 562.162 20.8906 562.392 20.4227 561.706C19.7861 560.772 21.6515 558.141 26.0545 551.819C45.7382 523.549 46.4741 522.941 61.9289 522.426L71.8091 522.097L71.8146 513.852C71.8201 506.028 71.6608 505.65 68.6512 506.335C51.3126 510.291 49.0443 510.526 43.6456 508.916L38.1206 507.261L44.7605 500.604C48.4128 496.945 54.163 490.6 57.5461 486.502C60.9238 482.41 65.2021 478.487 67.053 477.786C68.8983 477.084 70.4086 475.863 70.4086 475.068C70.4086 473.096 69.4804 473.255 65.3778 475.934C57.2331 481.259 42.0255 483.084 27.2243 480.509C16.696 478.679 16.5862 478.394 24.3245 472.959C27.5978 470.658 32.8098 466.483 35.9073 463.689C49.9561 451.017 60.0286 448.579 66.1688 456.369C67.7285 458.342 69.052 459.399 69.118 458.72C69.8429 450.792 68.4809 420.61 67.333 419.229C66.2535 416.122 62.2846 416.826 58.8825 417.429C57.631 417.651 56.4562 417.86 55.5302 417.86C55.953 415.778 54.8857 413.19 52.0101 410.321C57.5846 410.321 67.8109 408.765 67.4539 393.052C67.0969 377.065 66.1248 373.46 62.5494 374.83C61.2148 375.34 60.781 374.929 61.2808 373.625C61.7037 372.529 60.3251 370.118 58.1722 368.201C56.0413 366.311 55.0692 365.763 56.0084 366.995C58.9631 370.869 54.0367 372.808 50.4174 369.192C49.3739 368.157 47.0508 366.524 45.2494 365.56L41.9706 363.812L44.9253 361.747C46.5565 360.607 48.4732 360.043 49.1927 360.487C49.9122 360.931 50.8623 360.711 51.3017 359.994C51.7465 359.281 55.2724 358.268 59.1444 357.736L66.1852 356.767L66.1852 350.581L66.1852 344.39L55.7393 344.39C40.345 344.39 39.4826 343.706 46.5455 337.137C49.7858 334.123 55.256 328.042 58.6995 323.621L64.9605 315.589L63.9938 303.651C63.4666 297.082 62.9504 291.685 62.846 291.652C57.5077 289.987 44.7167 274.027 46.9465 271.803C47.3144 271.436 50.0495 271.809 53.0262 272.636C57.1676 273.781 59.3897 274.418 60.5819 273.586C61.9843 272.607 61.9618 269.597 61.9618 262.993C61.9618 257.047 62.1497 253.718 60.5773 252.184C58.4638 250.121 53.1702 251.303 39.9659 253.734C29.3497 255.69 20.1396 257.29 19.497 257.29C17.5198 257.29 26.6916 243.544 33.9521 235.616C39.0169 230.088 40.8404 228.106 40.4039 227.093C40.157 226.52 39.1865 226.257 37.6703 225.837L34.5013 224.966L37.5275 222.517C39.1861 221.169 44.3981 216.655 49.1048 212.485L57.6615 204.903L57.5187 194.011C57.4185 186.438 57.3765 182.818 55.5516 181.203C53.8755 179.72 50.6954 179.929 44.5848 180.32L33.9467 180.999L35.9402 177.164C37.0332 175.049 41.9322 169.817 46.8256 165.527L55.7283 157.737L55.1681 147.459C54.8605 141.805 53.9763 136.403 53.2074 135.455C52.3122 134.348 52.2847 132.332 53.1305 129.834C53.9049 127.554 54.0093 118.975 53.3832 109.086C51.8509 84.8097 51.9332 52.184 53.5644 36.7396C54.3442 29.3981 55.0143 20.2323 55.0528 16.3698C55.0912 12.5073 56.0798 6.34378 57.2496 2.67305L59.3695 -4L94.464 -4L115.334 -4C112.102 4.11615 111.839 7.28898 111.465 11.7948C111.401 12.567 111.334 13.3784 111.248 14.2605C111.248 20.7856 111.852 23.2017 113.906 24.9604C123.885 33.4743 123.924 33.5346 123.924 41.2431C123.924 45.9109 122.133 54.1016 119.124 63.251L114.323 77.8243L118.267 87.4833L122.21 97.1477L118.113 97.1477C114.576 97.1477 114.115 97.5805 114.768 100.303C115.186 102.046 116.333 107.891 117.317 113.299C118.997 122.514 119.327 123.111 122.572 122.733C125.763 122.366 147.71 131.954 147.82 133.762C147.94 135.882 137.088 139.29 130.212 139.29C123.166 139.29 122.518 139.553 122.54 142.451C122.583 148.878 124.495 149.831 130.964 146.637L136.868 143.722L135.984 148.883C135.495 151.716 133.238 157.715 130.97 162.213L126.845 170.381L129.092 191.71C130.327 203.44 131.415 214.43 131.503 216.134C131.755 220.802 134.221 222.413 141.301 222.517C149.758 222.643 146.611 229.343 136.242 233.277C132.475 234.707 132.376 235.036 132.409 245.67L132.442 256.589L141.191 264.018C146.381 268.428 152.504 272.192 156.245 273.282L162.549 275.118L156.722 278.964C152.191 281.955 149.165 282.821 143.08 282.876L135.265 282.947L134.875 329.472L134.485 375.997L141.839 383.722C145.881 387.973 151.06 394.066 153.35 397.26ZM111.391 336.578C110.693 337.005 109.326 334.041 108.359 329.987C104.454 313.638 99.286 306.461 91.4323 306.461C87.8021 306.461 87.7087 306.22 86.8244 294.868C85.7096 280.618 85.6382 265.048 86.6762 264.012C88.3074 262.38 94.3542 266.412 93.448 268.532C90.1637 276.192 95.0901 286.7 103.927 290.88C110.924 294.195 117.256 332.956 111.391 336.578ZM105.234 362.651C94.9198 367.571 93.9807 374.923 102.598 383.251C110.429 390.817 111.38 399.084 104.624 400.854C102.142 401.5 99.1817 403.358 98.0449 404.974C95.859 408.091 92.2232 407.286 93.5028 403.966C93.9148 402.897 93.7829 402.169 93.2172 402.355C91.8168 402.804 83.8862 396.504 84.7539 395.638C85.1384 395.255 86.5993 396.213 88.0053 397.764C90.7898 400.832 94.2883 401.785 91.8058 398.799C90.0923 396.739 87.7362 341.58 89.3618 341.58C89.9495 341.58 92.8274 343.475 95.7602 345.793C98.6929 348.11 101.4 350.006 101.774 350.006C112.621 350.006 114.834 358.076 105.234 362.651ZM106.591 232.006C102.301 232.006 99.6046 228.165 98.9235 221.07C98.1821 213.373 100.945 195.479 102.878 195.479C105.443 195.479 105.734 198.608 103.488 202.026C100.132 207.138 100.533 213.597 104.707 221.596C108.782 229.409 109.249 232.006 106.591 232.006ZM103.345 454.14C101.576 456.085 101.378 457.52 102.449 460.577C104.267 465.793 103.136 472.74 99.8956 476.213C97.7208 478.542 97.3199 481.013 97.5451 490.726C97.8142 502.462 95.178 517.177 92.7999 517.177C92.0804 517.177 91.4159 496.879 91.2621 470.116C91.1083 444.234 90.949 421.054 90.9106 418.61C90.7568 410.053 93.9532 412.945 96.485 423.651C97.8526 429.447 100.445 436.586 102.252 439.512C106.118 445.79 106.486 450.677 103.345 454.14ZM89.296 229.754C86.116 230.97 84.4958 229.568 84.4958 225.601C84.4958 221.936 87.0771 221.098 89.8451 223.859C92.1902 226.198 91.9541 228.735 89.296 229.754ZM84.8474 136.134C83.5677 136.556 83.0843 134.375 83.0843 128.168C83.0843 120.082 84.8968 116.723 86.3742 122.081C87.6044 126.574 86.6323 135.548 84.8474 136.134ZM83.0843 87.3134C82.2276 87.3134 81.7718 81.9662 81.9145 73.6167C82.1342 60.9445 82.2221 60.55 83.0843 68.3462C84.5892 81.906 84.5892 87.3134 83.0843 87.3134ZM80.6679 56.0575C80.3439 53.9317 80.3439 50.4528 80.6679 48.327C80.9919 46.2013 81.2555 47.9435 81.2555 52.1895C81.2555 56.441 80.9919 58.1777 80.6679 56.0575ZM76.2906 739.136C75.648 739.136 73.7039 737.624 71.9629 735.772L68.794 732.414L72.5395 715.758C74.5991 706.592 76.5433 698.835 76.8673 698.511C77.1914 698.194 77.455 707.201 77.455 718.531C77.455 729.866 76.9277 739.136 76.2906 739.136ZM73.6819 814.687L72.8032 827.732L64.2136 826.795C59.4904 826.28 55.4207 825.688 55.1681 825.475C54.6518 825.042 61.6267 772.644 62.2528 772.233C62.478 772.09 65.7787 769.483 69.5793 766.442L76.4938 760.908L75.5272 781.278C74.9945 792.482 74.1652 807.516 73.6819 814.687ZM69.5354 880.317C68.4314 897.887 67.0804 900.916 55.2285 912.411C46.0402 921.325 46.0293 921.281 48.5446 886.738C49.7254 870.488 50.6975 856.862 50.6975 856.462C50.6975 856.062 52.4495 855.734 54.5914 855.734C56.7333 855.734 60.8469 854.468 63.7357 852.923C71.6663 848.688 72.3253 849.083 71.3587 857.492C70.8919 861.547 70.0681 871.819 69.5354 880.317ZM66.1632 982.856C65.3778 982.368 61.1105 984.538 56.6839 987.672C48.7808 993.265 48.6105 993.315 47.4846 990.274C44.81 983.059 46.7706 977.437 52.5263 975.832C55.4701 975.016 57.5626 974.03 57.1781 973.646C56.7937 973.263 58.1887 973.022 60.2757 973.109C63.1645 973.23 64.1861 974.079 64.5431 976.665C64.8067 978.528 65.5975 980.659 66.306 981.393C68.0195 983.168 67.9427 983.952 66.1632 982.856ZM60.9292 930.721L55.6733 936.512L60.9292 936.944C66.2895 937.388 67.6022 939.454 64.4991 942.549C62.2309 944.806 61.1984 944.68 58.304 941.793C55.9754 939.47 55.8985 939.673 56.7498 945.886C57.6669 952.531 50.5437 970.025 47.0782 969.647C45.7381 969.504 45.491 926.343 46.8091 922.902C47.6768 920.634 66.1852 921.171 66.1852 923.467C66.1852 924.272 63.8236 927.537 60.9292 930.721ZM60.3801 1090.19C58.5732 1094.89 58.2656 1094.15 55.7722 1079.09C48.951 1037.95 49.0389 1031.33 56.3763 1031.33L62.0607 1031.33L61.8629 1059.08C61.7585 1074.34 61.0886 1088.34 60.3801 1090.19ZM54.4046 1004.53C48.2535 1008.32 47.8801 1008.24 47.8801 1003.24C47.8801 998.886 51.1478 997.67 56.92 999.878C59.9242 1001.02 59.8418 1001.17 54.4046 1004.53Z" fill="url(#paint2_linear_704_13)"/>
<path d="M93.5 1313C93.5659 1314.16 76.0821 1308.91 76.0821 1308.91C76.4566 1311.5 76.2121 1318.06 74.6642 1318.6C71.7506 1319.61 66.2255 1325.73 63.9146 1330.52C61.011 1336.54 58.2101 1358.36 59.2462 1366.89C59.5627 1369.84 59.6768 1375.72 59.6147 1379.93C59.4615 1384.18 59.6046 1387.8 59.8502 1387.92C62.7668 1389.25 84.6248 1347.71 85.2997 1339.4C85.8042 1334.12 83.4615 1325.94 80.2328 1321.96C78.5231 1319.7 78.3872 1318.73 79.4105 1313.47C103.622 1366.57 123 1368 148.5 1349C117 1363 107.334 1348.9 93.5 1313Z" fill="url(#paint3_linear_704_13)"/>
<defs>
<linearGradient id="paint0_linear_704_13" x1="34" y1="22.4999" x2="272.491" y2="48.227" gradientUnits="userSpaceOnUse">
<stop stop-color="#4F772D"/>
<stop offset="1" stop-color="#90A955"/>
</linearGradient>
<linearGradient id="paint1_linear_704_13" x1="34" y1="22.4999" x2="272.491" y2="48.227" gradientUnits="userSpaceOnUse">
<stop stop-color="#4F772D"/>
<stop offset="1" stop-color="#90A955"/>
</linearGradient>
<linearGradient id="paint2_linear_704_13" x1="34" y1="22.4999" x2="272.491" y2="48.227" gradientUnits="userSpaceOnUse">
<stop stop-color="#4F772D"/>
<stop offset="1" stop-color="#90A955"/>
</linearGradient>
<linearGradient id="paint3_linear_704_13" x1="34" y1="22.4999" x2="272.491" y2="48.227" gradientUnits="userSpaceOnUse">
<stop stop-color="#4F772D"/>
<stop offset="1" stop-color="#90A955"/>
</linearGradient>
</defs>
</svg>
