<svg width="540" height="837" viewBox="0 0 540 837" fill="none" xmlns="http://www.w3.org/2000/svg">
<g clip-path="url(#clip0_708_106)">
<path d="M562.447 420.816C561.242 420.411 560.117 420.022 559.124 419.661C558.709 419.517 558.315 419.38 557.938 419.25C555.738 418.49 554.131 417.935 552.583 417.248C548.393 415.387 544.632 412.559 530.688 402.075L530.666 402.059C529.751 401.371 528.793 400.65 527.787 399.894C514.651 389.981 503.296 382.836 496.43 380.058C490.394 377.562 477.49 375.353 474.529 376.218C473.358 376.56 472.19 377.424 471.889 378.184C470.751 380.684 468.797 381.927 463.376 383.585C457.935 385.174 457.818 385.284 454.542 389.678C450.933 394.468 448.382 396.484 441.516 400.358C436.575 403.146 434.862 405.215 423.248 423.03C419.272 429.124 414.757 435.673 413.259 437.456C411.782 439.307 409.212 443.047 407.563 445.846C405.913 448.644 403.188 452.877 401.527 455.38C397.678 461.138 396.165 466.96 397.452 471.367C397.975 473.157 398.357 476.258 398.26 478.23C397.978 485.71 394.771 490.084 387.388 493.212C380.605 496.09 376.568 498.391 374.648 500.52L372.729 502.65L371.844 497.827C369.932 487.7 371.43 477.473 375.469 472.108C376.759 470.386 378.008 469.797 382.966 468.349C386.272 467.383 390.141 466.552 391.598 466.426C395.214 466.266 395.498 464.166 392.102 463.289C390.751 463.012 389.634 462.516 389.574 462.309C389.513 462.102 391.318 460.604 393.605 458.964C402.192 452.794 405.927 447.668 404.047 444.556C403.042 442.907 396.067 440.012 386.61 437.319C382.454 436.141 376.914 434.322 374.366 433.273L369.673 431.281L363.271 433.674C356.456 436.188 354.74 437.735 355.544 440.489C356.49 443.725 355.912 449.424 354.331 452.202C352.341 455.623 351.526 456.16 343.689 459.271C340.277 460.641 336.837 462.169 336.002 462.637C334.186 463.84 333.723 462.257 333.962 455.91C334.42 443.147 339.59 437.303 349.812 437.754C353.982 437.956 354.834 437.035 353.298 433.822C352.681 432.732 352.686 431.983 353.217 431.753C357.888 430.09 359.042 428.408 357.497 425.421C354.815 420.077 353.038 419.625 342.099 421.325C328.717 423.366 325.348 423.603 317.028 423.268C309.25 422.999 303.944 422.232 299.303 420.673C297.17 420.026 296.166 420.17 292.134 421.721C281.121 425.984 265.236 424.571 257.554 418.744C252.921 415.165 249.679 410.208 244.624 398.533C239.041 385.815 235.889 380.907 230.859 376.996L226.958 373.876L230.984 373.074C253.93 368.464 270.481 369.085 282.046 374.898C288.886 378.356 292.724 382.54 296.001 390.177C298.867 396.663 300.446 405.394 299.727 410.61C299.386 413.026 299.562 414.395 300.205 414.805C302.441 416.319 309.65 417.202 313.677 416.4C317.358 415.698 318.059 415.793 318.401 416.963C318.763 418.203 319.443 418.228 326.499 416.541C333.369 414.982 335.418 414.832 345.07 415.376C355.786 415.982 356.191 416.088 368.705 420.803C391.067 429.291 402.37 432.417 406.226 431.29C408.775 430.546 410.476 428.181 419.448 413.604C433.985 389.928 437.012 386.728 453.244 378.325C461.35 374.089 463.55 371.13 460.774 368.279C459.396 366.888 446.314 364.581 435.962 363.943C422.327 363.068 405.398 363.455 393.402 364.866L381.634 366.286L376.28 362.544C373.292 360.502 367.674 357.136 363.848 355.04C359.933 352.896 352.685 348.811 347.731 345.923C337.535 339.934 328.06 335.901 320.156 334.175C317.186 333.473 312.062 332.055 308.696 331.021C305.309 329.918 301.205 329.173 299.589 329.272C297.904 329.39 294.75 329.34 292.601 329.146C289.209 328.791 288.224 329.004 286.615 330.147C283.768 332.174 274.706 334.671 270.281 334.619C261.381 334.603 257.136 331.583 248.964 319.473C243.974 312.112 242.079 309.976 238.675 307.533L234.498 304.493L237.476 303.175C242.509 300.957 252.714 298.276 258.643 297.59C269.743 296.44 278.423 299.286 283.447 305.739C285.503 308.427 286.551 310.736 288.519 316.962L290.969 324.84L293.435 325.091C295.742 325.314 295.811 325.294 294.975 323.968C294.24 322.987 294.278 322.603 295.047 322.677C301.742 323.337 303.39 323.603 305.368 324.744C307.305 325.747 312.113 327.108 324.201 329.854C325.504 330.221 326.845 330.203 327.129 329.896C327.981 328.975 326.461 325.309 322.631 319.104C319.079 313.341 318.752 312.988 313.938 310.583C308.344 307.808 303.001 302.568 300.756 297.694C299.139 294.206 299.157 288.895 300.754 283.87C301.167 282.6 302.031 279.991 302.933 277.264C303.321 276.092 303.716 274.899 304.086 273.78C305.682 268.755 306.178 265.846 305.962 262.546L305.581 258.173L308.142 259.518C312.709 261.846 322.144 269.328 325.914 273.532C332.342 280.697 334.625 286.98 333.393 293.766C332.62 298.027 328.243 306.33 325.156 309.324C322.637 311.704 322.657 311.773 323.981 314.002C325.503 316.397 328.574 319.236 330.698 320.11C331.815 320.606 331.738 320.853 330.452 321.826C328.98 322.929 328.972 323.155 330.448 326.162C331.078 327.39 331.852 328.972 332.438 330.171C332.567 330.435 332.687 330.681 332.795 330.901C332.87 331.054 332.939 331.195 333.001 331.32C333.888 333.078 335.381 333.838 344.069 336.456C352.757 339.075 355.455 340.379 364.643 345.99C370.479 349.592 376.423 353.31 377.798 354.179C380.718 356.241 381.693 356.255 404.176 354.919C413.072 354.413 427.88 353.675 437.093 353.226L453.921 352.495L466.705 356.084C473.783 358.052 487.683 362.138 497.605 365.143L515.653 370.633L526.15 377.655C538.153 385.561 549.517 392.333 558.565 396.976L562.447 420.816Z" fill="#DDDDDD"/>
<path d="M680.88 549.592C700.341 550.925 721.141 557.929 729 565.96L726.278 514.356L707.201 490.243L677.293 466.905C676.568 467.324 669.594 463.616 662.163 458.56C654.631 453.886 635.522 445.905 619.994 441.335C604.084 436.663 590.527 431.6 589.55 429.908C588.574 428.216 588.377 422.851 588.979 418.314C590.018 410.624 590.362 410.103 598.395 410.621C603.035 410.843 613.41 408.72 621.117 405.881C628.926 402.662 637.636 399.888 640.37 399.599C647.426 398.425 645.091 394.939 632.668 387.932C620.904 381.511 612.425 381.895 598.407 389.989C587.531 396.269 584.648 394.066 590.242 383.102C592.23 378.731 594.505 368.716 595.023 360.682C596.004 347.869 595.65 346.14 591.188 346.783C588.594 347.314 582.933 350.905 578.797 354.904C572.765 360.643 571.502 364.595 572.277 375.427C573.528 392.108 570.702 395.028 564.971 382.868C560.673 373.748 544.584 359.834 540.717 362.066C536.85 364.299 538.121 385.48 542.307 392.731C545.098 397.565 550.724 401.729 558.628 404.256C572.288 408.937 576.743 414.422 572.096 420.328C567.348 426.244 515.017 414.745 505.624 414.099C503.53 414.159 499.46 413.327 495.212 412.189C479.164 407.275 460.997 408.74 433.414 417.899C418.689 422.534 402.336 427.142 397.111 427.58C381.613 429.761 341.539 424.539 339.027 420.188C337.771 418.013 337.295 412.165 338.103 406.865C339.077 400.179 341.484 396.533 348.009 392.766C355.26 388.579 360.383 388.522 376.878 392.533C394.377 396.609 397.631 396.664 405.43 391.194C411.918 386.804 413.498 383.958 411.748 379.811C408.529 372.002 393.484 367.153 380.794 370.291C365.994 373.68 363.751 367.563 375.815 356.085C385.398 347.007 389.791 330.613 383.96 327.212C382.156 326.32 375.899 328.321 369.857 331.81C360.673 337.112 358.368 340.377 354.17 353.758C351.439 362.425 347.426 370.543 345.25 371.799C340.658 374.451 339.44 372.898 339.427 362.27C339.285 353.651 331.74 338.349 326.188 335.431C320.637 332.513 312.2 350.275 314.732 359.126C315.719 363.069 320.249 369.799 324.871 373.898C329.112 377.895 332.972 381.789 333.251 382.273C333.669 382.998 331.198 387.648 327.899 393.097C324.6 398.547 322.148 407.697 322.56 414.55C322.869 421.784 321.336 427.503 318.678 429.038C310.46 433.782 255.786 445.692 242.528 445.613C235.536 445.782 213.844 440.582 194.605 434.61L159.178 423.482L157.11 409.852C156.038 402.413 153.367 393.321 151.414 389.937C145.869 380.891 120.175 363.178 116.308 365.41C111.957 367.922 114.577 388.647 120.158 398.315C122.391 402.182 128.548 408.94 133.691 413.383C138.973 418.067 143.354 422.306 143.01 422.827C142.806 423.589 136.168 425.488 128.144 427.22C114.934 430.014 112.786 429.643 104.965 422.235C93.9436 411.517 79.1777 407.152 60.1464 408.795L44.7131 409.971L47.3369 416.191C51.1144 424.967 68.7832 436.035 81.3537 437.156C94.9284 438.342 96.1194 441.522 85.4851 447.662C79.2012 451.29 73.2512 452.148 64.3808 450.179C57.5561 448.963 45.5811 449.432 37.3163 451.304C20.9261 455.289 1.17225 465.727 3.26534 469.353C6.61428 475.154 33.4672 480.919 42.2801 477.765C52.6828 474.014 55.3514 474.729 55.2419 481.238C55.1871 484.492 50.9117 488.25 41.1046 493.59C27.6722 501.024 27.0866 501.684 21.4583 520.403C18.3564 531.218 16.3982 542.339 17.0685 545.175C18.5113 550.465 19.8594 550.009 39.1945 538.845C59.4964 527.123 59.8401 526.602 62.4859 514.439C64.3246 507.577 65.7721 498.362 66.1333 493.964C67.2817 479.765 72.0534 486.356 76.8952 508.698C81.9514 532.527 83.2347 533.075 94.4892 518.52C103.987 505.946 103.491 495.597 92.4875 481.003C83.5396 469.411 83.5024 468.788 88.9491 463.709C91.7746 460.789 95.0186 458.593 96.0227 458.658C96.9247 459.104 100.665 467.258 103.997 476.936C107.709 486.716 111.831 494.972 112.974 495.278C117.168 496.402 123.96 482.49 123.539 473.387C123.379 468.645 121.201 461.523 118.829 457.414C115.48 451.613 115.61 449.605 119.718 447.233C122.377 445.698 127.425 444.394 130.781 444.068C136.908 444.075 137.048 444.317 136.968 457.576C137.036 464.949 137.838 474.154 138.825 478.096C139.812 482.038 140.056 490.277 139.045 496.339C137.58 509.431 139.551 508.938 154.924 494.26C165.436 484.001 165.797 479.603 158.307 461.047C154.986 453.618 153.71 446.943 154.918 446.245C160.96 442.756 212.501 457.793 216.129 464.078C217.245 466.011 213.49 470.113 205.45 475.722C195.374 482.829 190.485 488.875 180.98 507.576C151.637 564.481 148.886 568.647 131.756 585.306L114.385 602.103L99.2002 597.013C86.5449 592.396 48.173 588.447 43.3393 591.238C40.439 592.913 53.3312 611.895 60.7241 616.328C67.4941 620.798 75.0066 620.973 90.7738 617.025C98.6575 615.052 100.713 618.054 96.6246 624.927C89.5435 636.106 79.4473 638.712 65.1275 633.445C51.189 628.279 50.3243 628.456 12.0873 639.254C9.53806 640.07 8.02749 640.553 7.7835 641.401C7.42869 642.633 9.75269 644.637 15.4563 649.556C31.1267 662.745 39.7181 664.23 54.9445 655.438C65.8205 649.158 68.1726 648.767 70.4053 652.634C74.8705 660.369 57.7307 674.777 38.2634 679.572C29.7569 681.583 20.6 685.259 17.8767 687.798C12.0861 693.397 5.10981 712.572 7.34244 716.44C9.99368 721.032 27.0542 719.883 36.9635 714.161L45.906 708.998L43.8357 718.25C42.2761 725.596 39.3483 728.898 30.4058 734.061C17.5962 741.457 15.3662 745.968 4.70526 784.995C-4.25655 816.919 -2.0339 818.536 25.6482 800.619C53.3303 782.702 57.9024 775.55 55.9235 750.911C54.8966 737.968 56.2318 726.884 60.0687 717.901C63.1159 710.341 66.3776 704.268 67.1401 704.472C68.1442 704.537 69.0013 710.488 69.5521 717.582C70.0956 730.804 80.0877 751.461 87.9639 755.615C91.5719 757.399 93.0495 754.934 97.0707 740.688C103.339 718.055 100.406 704.601 86.4751 693.309C76.6079 685.148 76.4683 684.906 79.9614 676.444C84.3092 665.554 87.8423 666.092 94.9588 678.419C102.913 692.197 113.944 705.164 116.36 703.768C119.986 701.675 122.945 682.241 120.999 672.73C119.444 665.571 117.212 661.704 111.585 657.54C104.778 652.447 104.461 651.34 107.165 644.301C108.772 639.828 112.248 635.243 115.148 633.568C119.74 630.917 120.54 631.744 131.23 653.61L142.096 676.34L147.077 667.663C153.637 656.141 157.564 636.149 154.215 630.348C152.819 627.931 147.091 624.148 141.475 622.235C135.719 620.079 130.688 617.505 129.99 616.297C129.293 615.088 137.211 605.36 147.202 594.757L147.208 594.751C157.439 584.011 167.669 573.271 169.527 570.909C172.799 567.087 173.459 567.672 176.093 576.142C176.803 578.312 177.768 581.421 178.843 584.88L178.845 584.888L178.848 584.897C180.322 589.643 182 595.045 183.501 599.58C188.731 615.897 187.219 626.116 177.275 639.592C168.261 651.887 161.202 675.944 164.83 682.228C167.203 686.337 169.313 686.085 177.772 681.201C186.231 676.317 188.053 673.331 191.042 660.648C192.806 652.539 195.128 645.398 195.853 644.979C198.029 643.723 205.043 656.431 204.821 661.071C204.692 663.08 202.091 669.738 198.969 676.052C193.617 686.877 183.858 726.351 185.672 729.493C186.928 731.668 198.975 724.068 207.349 715.687C211.587 711.307 214.811 704.611 214.587 700.873C214.417 693.881 216.191 688.023 219.333 686.209C223.684 683.697 223.751 691.07 219.648 710.198C215.173 731.473 217.147 739.357 229.516 749.618C235.421 754.266 235.421 754.266 240.923 745.933C244.017 741.246 248.617 732.467 251.153 726.813C256.086 715.263 255.491 713.673 236.74 692.916C228.286 683.296 233.436 681.611 248.008 688.989C254.703 692.213 260.84 694.471 262.048 693.773C266.882 690.982 264.841 675.724 258.926 668.827C251.931 660.619 244.651 658.055 228.761 657.883C221.63 657.811 217.399 656.065 215.027 651.956C209.864 643.013 212.383 641.236 229.937 642.058C242.991 642.9 245.826 642.229 246.085 638.212C247.002 626.404 226.274 612.268 215.183 617.06C208.239 620.103 207.579 619.517 198.9 606.158C191.16 593.869 189.476 588.718 187.796 569.062C185.967 546.915 189.584 519.689 194.659 516.758C196.11 515.921 199.272 518.607 201.644 522.716C204.993 528.517 204.948 534.022 200.852 547.022C196.106 561.686 196.191 565.182 201.401 576.999C209.16 593.789 213.548 591.9 220.504 568.224C225.659 552.035 225.445 550.547 217.369 532.651C208.52 512.3 208.657 504.164 218.155 491.59C229.958 475.752 256.322 465.041 309.101 454.871C334.072 450.121 350.128 448.907 383.367 450.663C406.184 451.669 411.994 450.57 430.066 443.358C454.218 433.28 457.723 435.446 445.931 453.534C434.24 471.242 417.975 487.723 403.474 496.096C391.389 503.074 390.143 503.149 375.303 497.537C361.225 492.13 341.281 491.076 324.891 495.061C319.704 496.123 319.016 497.165 321.807 501.999C327.388 511.667 343.27 517.966 357.56 516.483C373.337 514.786 375.978 517.128 367.567 524.885C358.913 532.782 343.973 535.93 328.074 533.508C309.785 530.855 286.72 536.115 290.348 542.4C291.185 543.85 295.668 547.707 300.494 551.044C310.807 558.302 323.684 558.28 335.527 551.442C340.119 548.79 346.096 546.306 348.69 545.775C352.911 545.272 353.19 545.755 351.937 551.957C351.297 555.872 348.063 560.317 344.921 562.132C330.903 570.225 327.736 582.044 331.975 608.924C336.354 636.045 338.92 637.141 354.59 619.07C365.715 606.523 367.377 598.796 363.726 579.634C360.718 564.934 364.515 546.951 369.992 548.622C371.517 549.031 373.126 552.936 373.388 557.297C374.181 564.251 393.427 595.357 396.327 593.682C399.711 591.728 407.051 576.533 407.681 570.368C408.71 560.428 398.98 544.132 390.099 539.913C384.687 537.237 383.329 535.443 383.97 531.528C384.545 528.618 386.227 525.391 388.16 524.275C392.027 522.042 404.89 534.274 412.704 547.809C419.262 559.17 421.029 559.438 425.553 549.414C429.772 540.533 426.271 523.863 419.259 519.532C410.824 514.411 410.852 512.784 420.639 502.944C435.491 487.922 439.535 486.554 442.309 495.266C443.575 499.691 447.185 509.853 450.582 518.527C453.839 526.959 456.129 535.95 455.553 538.86C455.08 541.389 449.922 549.201 444.346 556.288C433.398 569.7 415.79 603.392 417.883 607.018C419.976 610.644 433.857 610.686 439.9 607.197C448.117 602.452 454.194 591.209 456.346 577.075C458.424 561.695 461.426 559.639 466.729 568.824C469.659 573.9 469.717 579.023 466.605 587.588C462.703 597.575 460.477 641.723 463.407 646.799C465.36 650.183 477.936 636.799 482.423 626.151C484.82 620.256 485.886 610.939 484.685 605.509C483.484 600.079 483.668 594.816 484.876 594.119C489.469 591.467 496.02 608.955 496.76 627.541C497.946 645.226 498.719 647.681 505.145 652.672C529.91 671.567 544.187 659.456 533.076 628.488C529.568 617.945 526.191 613.771 514.343 603.854C499.091 591.39 498.513 585.923 512.796 590.567C519.035 592.443 542.631 589.777 548.431 586.427C554.474 582.939 529.606 564.425 519.361 564.54C516.004 564.866 509.989 566.728 506.364 568.821C496.938 574.263 484.116 571.032 478.953 562.088C476.581 557.979 475.25 554.558 475.975 554.139C480.809 551.348 499.813 551.333 512.598 553.942L527.67 557.164L522.926 548.946C516.646 538.069 490.08 526.659 482.104 531.264C474.612 535.59 470.612 531.454 464.164 513.585C454.067 484.932 457.081 462.243 473.728 445.864C481.135 438.042 483.589 437.269 501.654 436.185C516.465 435.046 528.589 437.069 552.058 444.788C569.009 450.148 597.676 459.055 615.873 464.34C634.07 469.625 652.481 476.397 657.168 479.492C667.304 485.886 703.566 521.347 707.892 528.84C711.939 535.849 709.763 537.105 695.566 535.956C685.524 535.309 682.54 533.488 668.728 517.936C652.898 500.005 638.864 489.094 634.756 491.466C629.438 494.536 633.478 507.673 642.276 516.773C646.936 521.495 650.731 526.394 650.424 527.538C649.161 531.49 629.698 521.779 623.364 514.157C619.988 509.983 615.533 504.499 613.273 502.259C608.334 497.053 566.77 483.668 565.851 487.099C565.303 488.383 568.978 497.54 573.556 507.144C583.966 528.526 591.499 533.201 610.391 531.316C617.345 530.524 628.428 531.859 634.844 534.6C647.155 539.738 647.155 539.738 636.262 549.895C633.297 552.574 627.21 561.567 622.434 569.481C612.816 586.314 615.151 589.8 633.549 585.944C646.137 583.188 655.414 575.254 662.27 560.338L667.826 548.75L680.88 549.592Z" fill="url(#paint0_linear_708_106)"/>
<path fill-rule="evenodd" clip-rule="evenodd" d="M549 393L549 354.5L525.39 334.808C514.45 327.889 501.82 316.978 491.066 304.171C473.063 283.102 472.391 282.531 457.577 277.481C433.75 269.412 422.679 256.542 425.71 240.013C427.247 231.247 434.601 227.765 454.93 225.225C468.707 223.722 474.536 221.492 483.646 214.986C499.335 203.183 499.362 198.923 484.021 193.541C472.273 189.242 470.169 189.539 459.67 195.908C453.372 200.055 445.6 206.076 442.6 209.202C437.793 214.73 436.549 214.831 435.187 210.434C433.732 206.421 436.681 202.673 450.36 190.784C459.846 182.744 472.39 173.828 478.168 170.976C491.921 164.592 490.176 160.101 472.738 156.643C462.915 154.441 461.186 153.205 463.036 149.797C464.366 147.685 467.488 139.916 470.038 132.819C472.733 125.961 476.476 118.141 478.666 115.833C485.519 107.758 478.662 105.063 464.901 109.821C442.491 117.54 437.582 121.824 433.154 136.588C429.29 149.051 423.603 160.663 420.501 162.544C419.785 162.979 416.03 158.402 412.121 151.959C397.502 127.857 391.326 127.361 386.265 149.691C382.467 166.031 388.852 179.786 403.767 186.08C409.475 188.493 414.235 193.113 416.653 198.175C421.488 208.299 416.161 215.122 409.041 207.689C406.205 205.166 398.71 199.267 392.083 194.8C381.181 187.05 380.031 186.769 378.717 192.136C377.872 195.586 380.067 204.048 383.404 211.164C388.963 222.481 390.743 224.339 400.088 226.831L410.2 229.51L407.802 238.473L405.166 247.58L395.848 240.828C380.815 230.035 359.73 204.96 355.024 191.82C352.504 185.514 347.09 174.435 342.842 166.893C336.183 155.917 335.256 152.235 337.466 144.039C339.821 136.082 342.582 133.102 355.944 124.995C373.934 113.756 386.932 99.668 383.892 94.6568C380.997 89.8843 367.119 90.1431 355.513 95.2252C347.298 98.9027 344.298 102.028 339.941 111.527C333.025 126.494 328.637 129.483 326.297 120.783C325.515 117.341 325.1 110.737 325.221 106.094C325.948 98.1445 327.09 96.7988 342.796 88.2505C353.967 82.4526 363.715 79.1505 370.463 78.9742C383.72 78.7664 383.958 78.6215 380.339 72.6558C375.129 64.0653 361.985 58.0023 350.406 58.8242C341.316 59.4426 339.638 58.8284 340.815 54.8498C342.137 51.1099 346.432 48.5044 358.711 43.9934C373.281 38.4183 375.045 37.0218 378.789 29.2016C381.014 24.2606 385.192 17.1563 387.758 13.3146C393.938 4.66891 390.914 2.91238 371.633 4.48961C349.098 6.08261 338.556 13.4571 334.809 30.4197C331.856 43.3098 324.182 59.7172 321.115 58.9662C320.349 58.7784 318.459 54.0487 316.902 48.7911C315.984 45.53 314.37 40.2113 312.831 35.1418L312.824 35.1188C311.997 32.394 311.192 29.7422 310.529 27.5219C308.487 20.9264 306.018 15.2423 305.107 14.816C302.424 14.1588 292.645 30.8632 289.821 40.7372C284.498 58.3296 289.799 75.6792 303.197 84.8524C308.239 88.3221 309.788 91.9524 311.436 105.969C312.582 115.393 312.383 123.675 310.952 124.543C308.565 125.991 288.286 109.24 284.234 102.559C280.76 96.8317 278.534 101.773 279.544 112.585C280.291 118.661 282.725 126.978 285.33 131.273C290.251 139.386 308.649 153.034 314.536 153.054C322.433 153.159 344.541 201.444 339.401 207.5C338.259 208.846 329.766 204.531 320.593 198.018C311.658 191.36 294.716 181.725 283.063 177.043C243.257 160.387 235.073 150.662 240.944 127.515C246.063 107.434 242.029 74.9534 234.871 79.296C229.621 82.4805 215.309 101.935 214.378 107.397C213.678 111.086 216.112 119.402 219.543 126.135C224.276 135.015 225.109 139.08 222.485 140.672C219.86 142.264 216.641 139.647 210.374 130.391C200.59 116.414 200.875 106.122 212.05 91.1814C218.895 81.4794 224.551 63.3589 221.946 59.0637C219.63 55.2456 212.984 56.6658 201.53 63.6139C191.509 69.6935 188.908 76.1679 189.66 93.0129C190.395 106.603 186.382 108.059 179.724 97.0819C176.25 91.3549 174.49 83.6092 174.927 75.1828C175.666 59.7186 168.871 50.1304 151.264 41.5521C145.029 38.8061 137.491 33.9126 134.51 31.1508C126.045 22.576 123.58 27.6617 125.361 49.4318C127.584 73.5453 130.24 78.4625 144.295 84.952C158.495 91.6801 167.488 100.588 162.716 103.483C160.807 104.641 158.081 104.989 156.403 104.375C153.379 102.618 112.466 104.588 109.603 106.325C106.501 108.206 118.89 126.479 126.667 131.228C137.995 138.065 158.375 136.148 171.159 127.087C180.746 120.292 182.228 120.045 186.989 124.665C197.133 133.854 214.811 157.079 213.864 159.285C213.199 160.342 207.218 160.706 200.607 159.493C177.614 155.488 174.938 156.458 160.567 173.664C153.382 182.267 148.301 190.572 149.314 192.242C150.183 193.674 155.694 195.227 161.487 195.63C170.825 196.494 171.643 197.304 170.95 202.62C169.277 212.776 171.55 217.599 182.162 224.871C192.247 231.811 192.392 232.049 188.965 236.086C186.775 238.395 180.563 240.531 175.204 240.844C155.54 242.327 148.902 245.375 140.727 257.189C131.648 270.205 133.776 274.79 151.027 279.014C166.744 282.863 171.661 280.206 184.874 261.092C190.577 252.736 196.194 246.39 197.728 246.766C199.117 246.903 197.92 256.769 195.249 268.509C191.263 285.616 191.185 289.254 195.206 289.426C208.753 289.696 221.829 271.97 219.552 256.377C218.711 250.685 218.687 245.803 219.164 245.513C219.88 245.079 226.628 244.903 233.903 245.059L247.305 245.09L242.733 259.615C238.11 273.519 237.226 288.744 240.845 294.71C242.003 296.619 246.11 294.78 255.169 287.652C267.901 277.969 272.923 267.415 270.38 256.226C269.794 253.644 275.29 251.943 290.788 250.049C302.315 248.605 318.334 245.416 326.361 242.505C348.438 235.314 363.346 239.98 392.994 264.104C406.4 274.905 425.513 288.119 435.973 293.525C479.864 316.575 513.378 359.214 549 393ZM205.263 191.923C198.582 195.976 200.101 213.009 208.242 223.74C214.552 231.99 239.368 236.848 241.057 229.947C241.808 226.88 240.318 225.499 235.053 225.428C230.554 225.546 226.713 222.98 223.818 218.207C218.897 210.094 217.839 189.517 222.338 189.399C229.23 189.462 259.109 211.814 264.609 220.882C268.807 227.802 272.699 230.99 278.833 232.492C297.711 236.708 327.823 228.234 322.902 220.121C317.257 210.814 288.118 192.91 267.792 186.307C255.713 182.537 245.065 177.898 244.196 176.466C240.433 170.261 232.875 171.255 221.813 179.925C215.567 184.694 208.365 190.042 205.263 191.923Z" fill="url(#paint1_linear_708_106)"/>
<path d="M505.518 689.518C480.346 711.563 474.291 716.237 459.943 724.757C453.808 728.402 448.776 731.583 448.56 731.91C448.08 733.292 441.164 731.72 438.622 729.605C434.644 726.324 426.753 723.276 421.029 722.854C413.465 722.263 407.905 725.313 399.365 734.454C394.808 739.323 389.955 743.491 386.574 745.269L381.014 748.318L386.052 751.034C395.13 756.061 407.184 760.307 413.593 760.676C425.968 761.483 436.096 754.15 440.347 741.268L442.035 736.31L447.853 737.517C450.976 738.208 454.041 739.042 454.695 739.474C455.349 739.907 456.024 739.268 456.378 737.586C456.805 735.518 457.997 734.426 461.605 732.906C464.211 731.809 471.247 727.784 477.255 723.838C483.264 719.892 488.581 716.827 488.908 717.043C490.047 717.508 489.778 726.116 488.428 729.635C487.774 731.444 485.912 734.588 484.33 736.435C482.689 738.423 480.532 743.108 479.593 747.043C478.143 752.845 476.887 754.908 472.894 758.595C466.559 764.567 460.757 776.568 460.52 784.691C460.199 792.614 462.156 796.982 471.815 809.552C478.457 818.319 480.435 821.616 482.793 828.056C484.307 832.492 485.885 835.958 486.085 835.874C486.386 835.747 489.45 832.097 492.805 827.734C504.884 812.146 511.409 796.537 510.454 785.022C509.678 774.493 500.757 762.556 489.511 757.144L483.46 754.264L484.905 749.29C485.781 746.325 487.743 743.139 489.71 741.366C492.496 739.014 493.35 737.12 494.072 731.27C495.702 719.728 503.102 703.396 510.999 694.407C517.745 686.487 525.693 679.589 533.361 676.898C544.128 672.938 547.861 675.548 553.583 678.853L553.583 670.717C533.361 664.192 520.795 676.11 505.518 689.518Z" fill="#DDDDDD"/>
</g>
<defs>
<linearGradient id="paint0_linear_708_106" x1="726.694" y1="423.741" x2="149.847" y2="238.922" gradientUnits="userSpaceOnUse">
<stop stop-color="#4F772D"/>
<stop offset="1" stop-color="#90A955"/>
</linearGradient>
<linearGradient id="paint1_linear_708_106" x1="541.651" y1="78.804" x2="180.838" y2="1.89518" gradientUnits="userSpaceOnUse">
<stop stop-color="#4F772D"/>
<stop offset="1" stop-color="#90A955"/>
</linearGradient>
<clipPath id="clip0_708_106">
<rect width="540" height="837" fill="white"/>
</clipPath>
</defs>
</svg>
