<svg width="683" height="1087" viewBox="0 0 683 1087" fill="none" xmlns="http://www.w3.org/2000/svg">
<g clip-path="url(#clip0_706_33)">
<path fill-rule="evenodd" clip-rule="evenodd" d="M104.264 804.955C92.6814 804.167 84.7122 814.852 71.1572 823.006C65.7313 833.363 65.6551 833.472 61.7162 830.729C52.0878 824.023 42.2464 824.156 37.5982 830.83C33.8644 836.191 34.4817 838.571 40.1712 842.534L45.2042 846.039L28.3993 848.471L11.4851 850.827L-21.1027 849.092L-19.8995 868.128L11.5493 864.033C13.1632 862.882 42.9904 856.683 43.8657 857.293C44.4127 857.674 41.6168 862.388 37.8067 867.859C30.3391 878.581 26.232 887.745 27.2675 891.391C28.3029 895.037 32.5851 896.354 34.8522 893.098L43.5391 880.625C48.3397 873.732 53.4315 865.255 54.9086 861.734C56.9719 856.672 58.1482 855.216 60.2329 854.556C62.6127 853.938 62.7553 854.2 61.8116 856.955C61.2586 858.682 59.758 861.537 58.6482 863.364C54.8284 869.315 54.1855 879.103 57.1845 886.229C61.2385 896.039 62.4519 896.397 66.5628 888.861C68.3682 885.569 70.2264 881.501 70.5507 880.102C71.1135 877.894 71.4846 877.828 72.7018 879.813C75.3219 883.75 84.8388 894.115 86.7086 894.93C87.9552 895.473 88.6273 893.342 89.0592 886.656C89.6259 876.976 89.8448 877.129 93.5979 889.004C94.9518 893.359 96.3585 896.939 96.806 896.763C97.2866 896.773 100.321 891.249 103.527 884.546C106.734 877.842 109.702 871.947 110.235 871.182C110.692 870.525 113.043 871.35 115.778 873.255C119.498 875.845 120.682 877.645 121.204 881.095C121.659 884.175 122.909 886.345 124.922 887.422C128.946 889.575 133.151 884.704 134.245 876.367C135.674 866.151 143.548 851.812 143.806 859.141C143.866 861.62 144.894 862.011 153.964 863.453L164.137 865.176L163.787 869.645C163.352 874.703 168.201 883.605 173.267 887.296C176.221 889.353 176.887 889.33 177.483 887.307C178.675 883.263 176.995 874.944 173.99 869.926L171.019 865.094L175.139 866.177C178.67 867.173 178.955 867.697 178.42 872.199C177.822 877.956 181.458 886.501 184.427 885.969C185.727 885.737 186.989 883.691 188.486 879.209L190.502 872.814L200.582 880.971C206.152 885.338 214.667 892.243 219.58 896.153C227.767 902.829 228.39 903.101 227.378 900.121C226.518 896.923 226.518 896.923 230.096 899.252C232.065 900.623 234.881 904.047 236.45 906.927C238.337 910.516 239.716 911.801 240.797 911.417C242.291 910.67 244.294 912.227 256.456 923.46C259.543 926.26 261.37 927.37 261.39 926.409C261.409 925.447 265.905 928.091 273.345 933.272C287.165 943.059 292.541 944.204 284.613 935.758C282.007 932.968 279.215 930.211 278.339 929.601C277.464 928.992 274.672 926.235 272.066 923.445L271.922 923.289C267.431 918.43 267.362 918.354 270.95 918.281C274.391 918.24 274.467 918.13 273.598 915.413C273.004 913.699 269.665 910.561 265.507 907.666L258.395 902.713L262.074 901.863L265.829 900.903L260.372 898.24C257.332 896.773 251.975 894.667 248.52 893.561C244.881 892.488 241.95 891.097 241.85 890.54C241.641 889.907 242.198 889.807 242.854 890.264C243.62 890.798 244.701 890.413 245.31 889.538C246.758 887.459 241.911 883.92 232.038 880.132C228.004 878.459 224.635 876.763 224.536 876.206C224.436 875.65 225.513 873.637 226.884 871.668C229.551 867.838 228.539 864.859 224.09 863.548C222.768 863.114 218.313 863.911 214.329 865.198L207.027 867.75L192.354 861.756C179.846 856.619 178.019 855.509 179.666 854.544C180.79 853.864 183.166 851.619 185.094 849.55L188.351 845.806L184.526 844.767C177.017 842.95 167.885 842.764 160.898 844.397C156.848 845.314 153.421 846.501 153.04 847.048C152.506 847.814 145.097 846.554 143.237 845.259C142.143 844.497 150.156 837.891 157.53 833.602C168.569 827.317 168.841 826.694 161.819 822.778C154.687 818.786 146.944 819.406 141.888 824.333C138.226 827.957 137.232 827.752 137.396 823.317C137.751 816.741 133.316 807.477 128.174 803.896C121.029 805.872 113.682 810.101 109.022 816.23C105.451 820.892 100.215 821.267 103.492 816.563C104.892 814.552 106.274 805.045 104.264 804.955ZM120.586 860.518C117.83 854.211 118.363 853.445 124.373 854.381L129.498 855.188L122.487 865.254L120.586 860.518ZM123.348 841.155C124.952 840.485 126.841 840.339 127.607 840.872C130.014 842.549 127.919 843.69 124.16 843.021C120.806 842.472 120.772 842.287 123.348 841.155Z" fill="#DDDDDD"/>
<path d="M42.1956 924.769C62.4743 928.81 76.6387 934.674 74.6025 937.985C73.9018 938.95 72.0206 944.585 70.2492 950.373C66.4439 962.717 67.0832 967.824 72.0815 968.653C74.7122 969.09 75.2389 969.988 75.3297 974.328C75.2877 977.024 74.9184 981.693 74.46 984.456C72.3965 996.891 80.2111 975.205 81.1155 972.855C84.5727 964.238 88.2057 956.191 89.3229 955.16C91.119 953.296 91.733 953.668 96.713 959.495C99.6527 962.956 103.318 969.376 104.921 973.562C106.371 977.857 108.214 981.407 108.741 981.494C109.398 981.603 109.528 978.381 109.086 974.523C107.894 962.161 108.507 961.723 115.001 969.017C118.313 972.676 122.219 978.46 123.778 982.097C126.873 988.693 130.296 992.505 132.597 991.67C134.766 990.814 137.006 996.051 137.976 1004.05C139.432 1017.27 147.899 1025.7 150.501 1016.54C152.01 1011.52 152.449 1012.94 153.532 1025.96C154.924 1041.19 160.827 1050.42 163.561 1041.27C164.588 1037.53 164.698 1037.68 166.61 1044.89C168.479 1052.36 171.044 1054 172.005 1048.22C172.267 1046.64 173.296 1045.32 174.348 1045.5C175.664 1045.72 175.732 1049.38 174.271 1060.62C173.117 1070.84 173.055 1076.91 174.066 1080.59C176.549 1089.25 178.433 1086.86 180.702 1072.37C181.881 1065.26 182.842 1060.29 183.062 1061.41C183.15 1062.5 186.639 1067.54 190.698 1072.4L198.266 1081.36L199.556 1076.04C201.13 1069.81 199.479 1060.21 195.902 1054.07L193.356 1049.87L197.323 1049.58C201.006 1049.38 205.76 1046.79 204.751 1045.54C204.51 1045.37 201.111 1043.86 197.165 1042.39C187.101 1038.69 179.271 1032.93 175.606 1026.51C170.954 1018.71 171.742 1017.22 179.196 1019.54C185.247 1021.36 185.116 1021.33 173.492 1012.38C162.723 1003.97 162.043 1003.18 164.234 1001.38C167.958 998.484 166.858 992.895 160.824 984.46C156.655 978.633 156.084 977.186 158.189 977.535C160.294 977.885 160.491 977.512 159.524 975.189C158.207 971.727 152.855 967.325 146.255 963.932C143.141 962.334 142.198 961.501 143.908 961.785C145.508 961.916 148.314 961.3 150.264 960.137C153.244 958.469 153.638 957.723 152.802 954.611C152.099 952.332 150.366 950.558 147.428 949.53C143.35 948.042 130.11 947.196 118.668 947.731C115.95 947.82 111.982 947.297 109.812 946.531C106.128 945.109 106.128 945.109 111.521 945.193C122.152 945.47 131.268 941.036 128.415 937.049C127.867 936.282 122.32 934.686 116.159 933.528C105.79 931.672 105.023 931.41 106.073 929.151C106.818 927.923 106.685 927.091 105.962 927.376C105.086 927.771 105.39 924.308 106.767 918.454C108.821 909.334 108.799 908.654 105.969 906.158C103.403 903.704 102.482 903.551 98.2742 904.475C95.6004 905.113 91.4591 907.264 89.0713 909.436C85.1282 912.836 84.5371 913.954 83.9283 920.881C83.4929 925.134 83.1885 928.598 83.1885 928.598C83.0569 928.576 80.2281 926.89 76.7634 924.963C71.7197 921.964 65.3836 920.237 44.7321 915.999C28.3776 912.659 6.73103 911.856 -7.58324 910.967L-26.7285 913.332L-23.5654 922.777C-1.42434 922.424 20.3981 920.56 42.1956 924.769Z" fill="#DDDDDD"/>
<path fill-rule="evenodd" clip-rule="evenodd" d="M365.659 196.649C361.682 194.692 355.62 193.623 339.549 192.207C322.161 190.542 319.262 190.019 321.903 188.913C323.579 188.124 326.012 186.33 327.215 184.83C329.308 182.338 329.199 182.06 327.011 181.064C325.718 180.549 319.769 181.229 313.894 182.586C299.284 185.85 297.038 185.518 297.483 180.471C297.951 175.158 293.407 173.554 285.786 176.496L280.251 178.552L280.708 173.372C281.222 167.528 279.238 165.747 274.511 167.74C272.292 168.615 271.75 168.701 272.374 167.685C272.976 166.935 275.929 165.321 278.991 163.985C282.042 162.781 284.186 161.23 283.835 160.664C283.628 159.976 284.772 159.14 286.534 158.894C291.143 158.229 303.572 147.813 305.899 142.664C307.723 138.675 307.602 138.531 304.016 138.215C299.367 137.805 288.828 141.963 279.044 148.195C274.79 150.899 269.185 153.752 266.712 154.471C264.228 155.323 262.107 156.608 262.048 157.272C261.978 158.069 258.345 158.285 253.962 157.899C249.579 157.513 246.04 156.666 246.087 156.134C246.133 155.603 249.781 152.176 254.25 148.555C266.089 138.756 269.584 132.505 263.607 131.978C259.49 131.616 259.525 131.217 263.977 126.255C269.32 120.301 274.378 111.511 273.768 109.316C273.463 108.218 272.205 107.304 271.01 107.199C269.549 107.07 269.209 106.371 270.013 104.836C270.662 103.554 272.106 97.7923 273.152 91.995C274.331 86.2095 276.525 76.4979 278.27 70.3606C281.772 57.9534 282.634 51.2031 281.001 49.9884C279.126 48.4847 274.916 53.7355 273.772 59.1226C272.066 66.3341 270.547 66.8695 270.202 60.1466C269.735 48.7283 266.786 51.8148 264.183 66.1751C262.723 75.1483 255.699 97.1503 255.808 92.8766C255.757 91.9352 255.296 91.0914 254.632 91.0329C253.436 90.9276 252.55 93.3927 250.032 103.745C249.208 107.019 247.947 109.183 246.884 109.089C244.361 108.867 243.295 111.852 242.476 121.149C241.688 128.575 241.508 129.095 240.293 126.177C238.397 121.861 236.917 123.47 236.141 130.764L235.47 136.862L234.465 131.553C233.781 128.682 232.796 126.186 232.011 125.983C231.347 125.924 229.195 129.081 227.371 133.07C224.575 138.981 223.818 139.985 222.774 138.153C220.152 132.969 211.591 140.514 208.373 151.206L207.046 155.64L204.944 150.636C203.849 147.863 202.345 145.187 201.849 144.742C200.216 143.527 193.787 149.654 189.725 156.256C186.468 161.323 175.243 174.79 171.474 178.072C170.607 178.799 170.649 176.795 171.434 172.447C173.112 164.028 171.565 163.357 163.988 168.846C158.254 173.16 154.454 178.313 154.079 182.563C153.927 184.29 153.181 185.161 152.275 184.814C151.248 184.322 150.731 181.064 150.864 176.524C150.961 172.384 150.601 168.872 149.937 168.813C149.272 168.755 147.116 170.439 145.191 172.545L141.641 176.381L131.889 168.562L129.979 172.008C128.862 174.051 127.882 177.579 127.539 179.958C127.071 185.271 124.922 185.349 124.195 179.931C123.542 175.189 119.1 170.916 115.662 171.951C112.635 172.889 109.21 178.343 107.527 185.289C106.715 188.43 102.959 196.13 99.1976 202.357C92.121 214.316 90.1494 221.504 93.7396 223.293C95.2867 223.964 93.0955 226.047 85.3968 231.392C79.7097 235.174 74.8896 238.23 74.7685 238.085C74.6474 237.941 75.4553 233.327 76.4663 227.928C77.61 222.541 78.7847 215.283 79.2217 211.841C79.7248 206.13 79.5177 205.443 76.8613 205.209C71.6697 204.885 62.3496 208.883 56.6666 214.138L51.1398 219.139L49.0374 214.135C46.3528 208.143 45.3019 207.917 43.0839 213.343C37.1133 227.942 37.7746 235.63 45.5772 245.82C48.8124 250.121 51.4068 254.097 51.36 254.628C51.1687 255.281 46.3177 260.207 40.4902 265.583L29.7373 275.211L31.6223 262.928L33.3627 250.768L27.9956 252.436C25.1011 253.386 19.3162 256.758 15.2697 260.15L8.0438 266.206L9.71056 257.92C10.6513 253.318 12.5287 242.641 13.8087 234.188C15.8106 220.578 15.8533 218.574 13.9938 218.41C9.21234 217.989 -10.6637 241.536 -13.3421 250.669C-13.985 252.816 -17.5781 257.811 -21.337 262.342L20.9093 322.959C20.7366 319.006 21.1292 317.161 21.9347 316.686C25.1534 315.096 28.5172 317.935 30.4283 323.591C32.8748 330.767 39.2157 336.278 48.5797 339.378C53.5216 341.018 56.6666 343.303 61.5231 348.951L67.9658 356.345L61.4618 357.244C57.9384 357.737 53.0165 358.91 50.6532 359.906C48.1572 360.891 44.8684 363.278 43.0991 365.13C39.5254 369.232 38.6658 368.354 36.1367 357.557C33.1191 344.709 28.052 341.452 27.7802 352.136C27.7299 355.745 27.328 358.789 26.9295 358.753C26.5311 358.718 23.1555 356.012 19.2838 352.86L17.762 351.557L8.65594 362.738C8.69507 363.235 8.63226 363.76 8.50005 364.358C7.98874 367.124 8.92261 368.678 13.7984 372.588C25.0267 381.876 25.7066 383.274 24.0281 391.693C22.8376 397.611 21.5645 399.908 18.1077 402.682C13.3503 406.547 10.3705 411.504 8.25435 418.813L12.1068 423.704C14.81 423.406 19.056 422.308 21.4426 421.046C23.8176 419.917 26.1808 418.92 26.5792 418.955C26.9777 418.99 25.8766 422.373 24.0412 426.495C19.7222 436.019 17.1931 451.056 19.1861 455.782C20.9719 459.821 28.9025 464 33.6565 463.214C36.3714 462.784 37.1291 461.78 37.566 458.338L38.0732 454.099L39.2184 457.814C41.9071 465.279 48.963 471.79 55.2055 472.34C56.9322 472.492 60.5692 473.749 63.3977 475.069C70.3476 478.224 72.7501 478.302 76.074 475.516C78.9643 473.094 78.9643 473.094 83.3673 476.293C85.7505 478.109 87.7235 480.023 87.665 480.687C87.6065 481.351 88.2238 481.941 88.8879 481.999C89.6848 482.069 90.3448 480.655 90.5085 478.796C91.0116 473.084 92.8167 475.385 92.5676 481.252C92.4197 484.452 93.0803 487.589 94.0727 488.479C95.4401 489.67 95.663 491.698 94.7223 496.299L93.3755 502.472L99.3524 502.998C105.595 503.548 114.938 499.285 118.883 494.011C121.601 490.502 122.496 490.983 122.981 496.112C123.701 503.135 129.245 508.576 137.277 510.086C145.176 511.585 145.367 510.933 140.927 499.031C138.02 491.011 136.108 480.804 137.436 480.921C139.694 481.12 146.187 484.905 146.105 485.834C146.047 486.498 147.915 489.608 150.435 492.908C154.748 498.642 161.874 504.356 168.801 507.777L172.403 509.433L172.304 504.472C172.152 501.647 171.768 498.401 171.342 497.159C170.698 495.362 172.811 495.682 185.703 499.762L200.806 504.573L204.772 511.213C207.003 514.756 209.909 518.224 211.203 518.74C215.457 520.587 218.144 518.95 218.554 514.301C218.764 511.91 219.229 509.676 219.662 509.312C220.096 508.949 223.768 509.808 227.936 511.112C237.941 514.536 243.93 514.93 244.152 512.406C244.246 511.344 243.663 510.356 242.734 510.274C241.937 510.203 241.573 509.77 242.14 509.418C242.573 509.055 245.714 509.867 249.195 511.378C252.555 512.745 258.016 514.564 261.29 515.388L267.185 516.844L264.919 513.7L262.641 510.689L271.274 511.449C276.321 511.894 280.895 511.627 282.45 510.693C284.86 509.166 284.872 509.033 282.258 506.795C279.552 504.437 279.654 504.424 286.216 503.575L286.426 503.548C290.215 503.079 294.125 502.754 295.188 502.847C296.25 502.941 300.16 502.616 303.95 502.147C315.45 500.751 310.59 498.181 293.71 496.828C284.678 496.032 279.534 495.178 280.135 494.428C280.736 493.677 278.623 493.357 274.459 493.526C257.923 494.345 255.388 494.256 254.72 492.724C254.138 491.736 252.255 491.838 248.505 493.382C245.454 494.585 241.099 495.406 238.708 495.196C234.469 494.688 234.469 494.688 237.18 492.786C239.867 491.148 239.215 490.957 228.652 490.83C226.315 490.773 223.329 490.716 220.136 490.654C214.752 490.549 208.779 490.433 204.339 490.294L191.373 490.089L193.927 483.889C195.653 479.491 195.996 477.112 195.149 476.1C193.211 473.788 184.942 478.012 181.708 482.813C179.232 486.611 178.677 486.829 175.329 485.33L171.473 483.518L176.852 481.716C182.375 479.793 189 474.488 190.679 470.62C191.518 468.686 191.022 468.241 187.436 467.925C181.182 467.508 171.753 471.228 168.843 475.389L166.246 479.042L157.334 473.84C149.451 469.13 148.411 468.771 146.775 470.634C141.877 476.092 145.031 460.04 150.487 451.285C154.994 444.187 154.891 437.753 150.422 436.824C148.188 436.359 145.836 437.223 143.512 439.294C140.899 441.607 138.837 442.228 134.321 441.83C131.001 441.538 128.668 440.663 128.738 439.866C128.82 438.937 130.323 432.51 132.162 425.31C134.001 418.111 135.215 411.927 134.84 411.626C134.609 411.204 131.234 413.048 127.403 415.522C116.907 422.227 116.642 422.203 122.414 414.413C126.37 409.006 127.222 406.939 125.917 406.557C123.96 405.983 110.01 407.833 105.475 409.173C103.268 409.916 103.026 409.627 104.01 407.572C104.658 406.291 105.841 401.978 106.567 398.294C108.246 389.875 107.085 389.371 97.6835 394.299C90.8127 397.843 85.0286 405.766 84.1429 412.782C83.8229 414.896 83.1437 418.048 82.4603 419.728C81.4177 422.447 81.1404 422.556 79.7103 420.557C78.5342 418.713 78.5652 416.842 80.2285 411.634C81.353 407.986 82.8828 398.215 83.6199 389.848L84.9536 374.706L90.2354 377.045C96.9197 380.177 97.8494 380.259 98.0717 377.736C98.2004 376.275 98.8762 376.2 101.318 377.352C107.229 380.148 119.96 383.01 123.108 382.216C125.991 381.399 125.64 380.833 117.829 372.248C108.058 361.616 101.1 355.516 95.4194 353.141C93.0989 352.134 87.2893 346.67 82.4328 341.022C73.6771 331.015 73.5676 330.737 79.1309 334.44C84.1863 337.83 99.5472 344.269 100.559 343.421C101.137 342.937 95.8241 316.636 93.9364 310.714C93.1079 307.964 92.4004 305.359 92.4472 304.827C92.4823 304.429 100.729 305.021 110.8 306.176C131.328 308.654 145.9 313.417 144.123 316.875C143.498 317.89 142.053 323.653 140.73 329.559C137.88 342.158 138.908 347.201 143.956 347.645C146.612 347.879 147.206 348.735 147.628 353.055C147.793 355.747 147.782 360.431 147.536 363.22C147.279 366.142 147.369 368.157 147.791 367.927C148.092 367.552 150.63 360.012 153.285 351.144C156.072 342.288 159.079 333.986 160.114 332.873C161.762 330.876 162.403 331.201 167.814 336.63C171.01 339.856 175.156 345.977 177.074 350.027C178.848 354.199 180.958 357.597 181.49 357.644C182.154 357.703 182.036 354.48 181.301 350.667C179.166 338.433 179.744 337.948 186.777 344.725C190.36 348.119 194.697 353.587 196.529 357.095C200.12 363.434 203.824 366.973 206.054 365.965C208.152 364.945 210.786 369.996 212.365 377.898C214.828 390.964 223.915 398.725 225.809 389.388C226.929 384.267 227.476 385.654 229.552 398.552C232.105 413.635 238.697 422.38 240.723 413.055C241.461 409.239 241.582 409.383 244.04 416.426C246.475 423.735 249.159 425.176 249.673 419.331C249.814 417.738 250.739 416.347 251.802 416.44C253.13 416.557 253.478 420.202 252.882 431.527C252.513 441.801 252.916 447.86 254.206 451.453C257.344 459.894 259.039 457.367 260.193 442.745C260.825 435.573 261.402 430.537 261.707 431.635C261.879 432.721 265.743 437.478 270.162 442.017L278.394 450.371L279.272 444.961C280.365 438.632 277.984 429.187 273.948 423.344L271.088 419.344L275.022 418.753C278.678 418.272 283.221 415.326 282.119 414.158C281.865 414.002 278.361 412.757 274.314 411.597C263.996 408.68 255.749 403.537 251.604 397.416C246.368 389.995 247.04 388.448 254.65 390.189L254.708 390.202C257.089 390.721 258.517 391.033 258.649 390.746C258.848 390.316 256.143 388.545 249.389 384.121L248.414 383.483C237.034 375.921 236.295 375.187 238.342 373.226C241.834 370.053 240.309 364.565 233.648 356.617C229.045 351.125 228.365 349.726 230.49 349.914C232.615 350.101 232.783 349.714 231.642 347.472C230.064 344.121 224.391 340.141 217.55 337.263C214.323 335.908 213.319 335.15 215.046 335.302C216.652 335.31 219.402 334.481 221.257 333.172C224.1 331.281 224.436 330.508 223.366 327.469C222.49 325.25 220.627 323.613 217.619 322.813C213.439 321.642 200.172 321.812 188.805 323.22C186.102 323.517 182.106 323.299 179.883 322.702C176.101 321.565 176.101 321.565 181.484 321.236C192.106 320.7 200.855 315.581 197.706 311.823C197.1 311.101 191.448 309.934 185.217 309.251C174.736 308.194 173.951 307.991 174.825 305.659C175.474 304.377 175.278 303.557 174.579 303.897C173.735 304.358 173.774 300.881 174.699 294.939C176.049 285.689 175.975 285.013 172.962 282.74C170.216 280.49 169.286 280.408 165.161 281.651C162.544 282.491 158.579 284.953 156.365 287.301C152.693 290.993 152.19 292.154 152.113 299.107C152.004 303.381 151.965 306.857 151.965 306.857C151.902 306.852 151.202 306.518 150.099 305.991C148.881 305.41 147.171 304.594 145.281 303.726C140.023 301.121 133.573 299.883 112.658 297.238C98.3601 295.443 86.3554 293.449 86.0155 292.75C85.6638 292.183 84.7575 291.836 84.0583 292.176C83.3474 292.649 76.82 293.814 69.4957 294.909C62.3042 296.015 55.101 297.255 53.5931 297.657C52.0737 298.193 53.2766 296.692 56.2881 294.414C63.1548 289.398 67.9741 281.791 67.9225 276.299C67.961 272.822 67.246 271.822 64.3474 271.299C62.3785 270.858 57.9019 271.534 54.4527 272.703L48.109 274.821L52.3937 270.246C54.8856 267.788 58.8227 264.12 61.1232 262.315L65.4471 258.814L66.0259 262.88C66.3975 266.259 67.257 267.138 71.3159 268.165C77.4766 269.644 91.6999 270.763 99.3642 270.368C105.157 269.941 105.302 269.82 103.243 267.363C99.3552 262.871 90.9167 258.38 81.4941 255.944L72.2043 253.52L114.28 225.637L121.558 229.625C125.512 231.847 131.325 234.233 134.466 235.045C139.177 236.263 139.927 236.864 138.845 238.509C138.197 239.79 137.233 244.658 136.812 249.439C136.145 257.01 136.5 259.049 139.533 264.135C142.772 269.908 150.156 277.251 153.078 277.508C153.875 277.578 154.741 272.301 155.295 262.98C156.171 248.468 157.382 245.362 159.742 251.995C163.819 263.463 201.872 269.09 214.98 260.072C217.824 258.181 216.073 253.744 211.662 252.151C209.463 251.288 199.685 246.813 190.062 242.083C180.429 237.487 170.338 233.52 167.681 233.286C165.025 233.052 162.052 231.853 161.083 230.697C159.981 229.529 157.54 228.377 155.414 228.19C151.961 227.886 151.731 227.464 152.163 222.549C152.592 216.162 153.944 216.014 162.445 221.313C170.571 226.312 177.447 228.792 187.131 229.779C196.803 230.898 202.217 228.698 202.662 223.651C203.024 219.534 204.22 219.639 215.678 224.798C221.733 227.473 227.738 229.206 233.183 229.686C239.293 230.224 243.461 231.528 248.298 234.363C256.193 238.94 259.08 239.596 258.275 236.581C257.837 235.471 258.607 234.334 259.849 233.908C262.732 233.092 262.821 230.556 260.133 227.643C256.718 223.862 239.9 214.215 236.446 213.911C234.72 213.759 232.677 212.642 231.829 211.631C230.422 209.365 220.925 206.253 211.034 204.579C206.553 203.783 207.362 203.72 214.147 204.184C222.804 204.679 223.081 204.569 223.374 201.249C223.619 198.46 224.065 197.963 225.987 198.936C234.945 203.606 242.328 206.398 246.977 206.808C252.024 207.252 252.313 207.01 252.641 203.291C253.074 198.377 256.812 196.966 267.172 197.879C273.414 198.429 274.575 198.932 276.54 202.452C278.759 206.127 288.448 213.138 291.769 213.43C292.566 213.5 293.405 211.567 293.616 209.176L294.014 204.66L308.136 208.447C325.266 213.034 332.63 213.014 344.567 208.176C349.571 206.074 357.133 203.795 361.356 202.962C365.578 202.13 369.426 200.996 369.883 200.367C370.34 199.738 368.476 198.102 365.659 196.649ZM265.722 171.784C264.359 172.066 263.625 172.804 263.988 173.238C264.352 173.671 265.449 173.366 266.461 172.519C267.773 171.296 267.652 171.151 265.722 171.784ZM129.842 454.687C123.682 457.758 123.6 458.688 128.812 461.824L133.262 464.492L134.338 452.272L129.842 454.687ZM119.544 471.314C120.345 472.857 121.7 474.181 122.63 474.263C125.552 474.521 124.677 472.302 121.364 470.404C118.438 468.674 118.293 468.795 119.544 471.314ZM71.0344 395.967C72.1809 382.951 74.9061 373.286 78.0387 371.152C80.7495 369.25 80.722 368.042 77.7332 365.504C75.3617 363.555 74.518 364.016 65.1477 371.623C59.656 376.226 53.5587 380.106 51.6525 380.473C49.7579 380.708 48.215 381.509 48.4338 382.064C48.9342 383.982 67.8447 407.866 68.9072 407.96C69.5713 408.019 70.4495 402.608 71.0344 395.967ZM66.4421 458.74L67.8591 451.771C70.338 440.344 70.3497 440.211 65.5682 439.79C53.8801 438.76 46.414 432.347 47.1277 424.245C47.7009 417.737 49.7008 416.307 56.6074 416.915L62.7171 417.454L51.3827 404.81L39.9155 392.155L38.4518 399.656C37.6906 403.738 37.328 407.856 37.8007 408.566C38.2618 409.41 38.7546 412.934 38.97 416.566C39.0918 421.262 40.698 425.821 44.6289 432.859C47.5165 438.066 50.6071 442.488 51.1384 442.534C51.8025 442.593 51.9938 441.941 51.6538 441.241C50.5011 439.132 54.7121 438.432 57.6266 440.295C59.0174 441.221 61.565 445.728 63.2923 450.431L66.4421 458.74ZM62.0874 309.113C57.1772 310.153 57.2281 311.095 62.2133 315.282C64.827 317.52 66.9446 319.312 66.968 319.047C66.8649 318.924 66.5211 317.131 66.0812 314.838L66.0803 314.834L66.0619 314.737L66.053 314.691C65.9847 314.335 65.9142 313.967 65.8421 313.593C65.0094 309.371 64.4038 308.648 62.0874 309.113ZM40.1474 298.347C37.6631 299.199 37.6514 299.332 40.718 299.468C42.5774 299.632 45.5462 299.358 47.4525 298.99C49.0364 298.613 49.8558 298.418 49.8463 298.278C49.8362 298.129 48.8745 298.045 46.882 297.869C44.7569 297.682 41.667 297.811 40.1474 298.347ZM29.8701 301.055C29.9403 300.259 30.8777 298.735 32.0338 297.766C33.0688 296.652 34.5801 293.172 35.271 289.886C35.962 286.601 36.2703 284.62 35.7899 285.515C35.1533 286.663 13.9752 302.199 9.61212 304.625C9.32309 304.867 9.28799 305.266 9.53023 305.555C10.4992 306.711 29.7531 302.384 29.8701 301.055ZM3.11778 291.739C1.35947 288.907 1.00025 289.946 2.23138 294.204C2.63399 295.712 3.38409 296.313 3.84104 295.684C4.43083 295.067 4.05166 293.293 3.11778 291.739Z" fill="#DDDDDD"/>
<path fill-rule="evenodd" clip-rule="evenodd" d="M263.988 173.238C263.625 172.804 264.359 172.066 265.722 171.784C267.652 171.151 267.773 171.296 266.461 172.519C265.449 173.366 264.352 173.671 263.988 173.238ZM122.63 474.263C121.7 474.181 120.345 472.857 119.544 471.314C118.293 468.795 118.438 468.674 121.364 470.404C124.677 472.302 125.552 474.521 122.63 474.263ZM2.23138 294.204C1.00025 289.946 1.35947 288.907 3.11778 291.739C4.05166 293.293 4.43083 295.067 3.84104 295.684C3.38409 296.313 2.63399 295.712 2.23138 294.204Z" fill="#DDDDDD"/>
<path d="M0.00427246 838.83C0.0345459 838.82 0.0653076 838.809 0.0960693 838.799C0.498413 838.666 0.946655 838.538 1.4325 838.414C2.53552 838.135 3.83728 837.885 5.2572 837.694C19.2333 835.818 20.4188 842.612 7.94666 853.145C4.91101 855.709 2.26355 858.01 0.00427246 860.053V838.83Z" fill="url(#paint0_linear_706_33)"/>
<path d="M0.00427246 870.974C2.72107 870.125 6.00183 868.964 9.84802 867.503C37.5502 856.986 57.2587 865.172 39.7396 879.923C25.3578 892.041 27.8192 900.386 43.3129 892.019C60.5804 882.698 77.0536 890.443 65.2094 902.315C58.3378 909.198 59.4081 909.936 73.3221 907.94C87.2142 905.945 93.2186 912.977 84.8124 921.398C79.2699 926.953 79.3114 927.025 87.2631 925.747C97.1903 924.159 102.955 927.438 99.5463 932.741C97.6605 935.678 98.8871 937.091 104.289 938.213C108.293 939.043 111.314 940.982 110.995 942.519C110.675 944.059 112.928 945.837 116 946.475C119.073 947.113 121.208 949.497 120.736 951.772C120.264 954.048 124.659 959.729 130.497 964.394C136.343 969.067 141.717 974.432 142.439 976.328C144.953 982.912 118.241 970.445 104.087 958.427C101.721 956.419 97.3265 954.261 94.329 953.639C91.3231 953.015 88.307 950.971 87.62 949.099C87.1586 947.818 85.2626 946.757 82.8695 946.265C81.7543 946.036 80.5267 945.929 79.2836 945.981C73.9598 946.201 70.8397 944.049 66.8168 937.374C63.5131 931.891 61.1205 929.968 60.5931 932.362C57.4535 946.713 44.2919 941.287 40.6796 924.155L38.6205 914.374L35.9242 926.211C31.1034 947.383 18.5629 937.726 15.8026 910.719C15.1942 904.775 12.7137 897.193 10.2938 893.872C4.05115 885.321 -0.399536 892.687 1.01892 909.205C2.745 929.306 2.81775 933.655 0.00427246 933.89V870.974Z" fill="url(#paint1_linear_706_33)"/>
<path d="M0 46.9255C6.51094 38.4167 13.7851 31.9727 18.7269 31.9727C23.1912 31.9727 22.978 34.0951 16.2795 56.5178C11.5338 72.4027 14.3948 80.519 22.2446 73.4159C25.289 70.6558 29.2587 63.7361 31.0623 58.0387C39.2532 32.1562 53.4946 25.2493 53.9124 46.9596L54.1469 59.0967L58.1507 49.9395C65.169 33.8989 79.1588 31.2603 79.3166 45.9507C79.3464 48.4015 82.0796 47.0044 86.4287 42.3074C91.7244 36.5887 95.2166 35.1168 100.384 36.4137C101.591 36.7166 102.815 36.8617 103.953 36.8638C106.396 36.8681 108.469 36.2154 109.181 35.055C110.234 33.3613 113.602 31.9727 116.672 31.9727C119.734 31.9727 124.475 30.7526 127.2 29.268C143.501 20.3774 172.188 13.5986 168.389 19.5349C167.297 21.2434 160.944 25.405 154.271 28.7923C147.607 32.1732 142.149 36.8425 142.149 39.1675C142.149 41.4904 139.574 43.391 136.435 43.391C133.297 43.391 130.73 44.6751 130.73 46.2472C130.73 47.8171 127.379 49.1012 123.29 49.1012C117.773 49.1012 116.284 50.236 117.534 53.4953C119.794 59.3804 113.483 61.4196 104.085 57.8467C96.5597 54.9799 96.5043 55.0418 100.802 61.6073C107.322 71.5602 100.013 77.2256 86.8168 72.4497C73.5988 67.6673 72.4006 68.1729 77.7304 76.3084C86.9148 90.3396 69.2112 94.5759 54.1981 81.9396C40.7285 70.5982 36.6224 78.2686 48.2415 93.0571C62.3975 111.06 41.4363 115.07 16.45 99.1428C8.19515 93.8784 2.72888 90.9305 0 90.4463V46.9255Z" fill="url(#paint2_linear_706_33)"/>
<path d="M0 96.5852C2.17458 100.286 6.07176 105.67 11.6702 112.816C21.7415 125.663 19.2002 132.075 5.89691 127.397C4.54526 126.922 3.32155 126.412 2.29822 125.915C1.33458 125.446 0.545776 124.985 0 124.573V96.5852Z" fill="url(#paint3_linear_706_33)"/>
<path d="M0 149.494C5.42791 145.309 10.8729 149.029 10.8729 164.058C10.8729 183.554 21.912 177.897 28.0947 155.229C36.0255 126.152 45.1715 124.934 41.2573 153.478C38.2299 175.568 47.231 165.73 56.4153 136.898C61.37 121.374 65.0923 123.763 65.0923 142.469C65.0923 162.375 68.4693 160.249 77.9266 134.379C84.8383 115.471 87.0897 115.855 88.5394 136.188L89.3495 147.606L95.9286 129.761C102.035 113.178 107.897 106.451 107.897 116.03C107.897 125.672 114.17 122.796 119.516 110.702C126.07 95.8749 130.73 93.808 130.73 105.73C130.73 120.19 134.367 117.956 140.456 99.7614C148.259 76.4555 155.418 74.1049 153.96 95.3246C152.621 114.721 158.765 110.815 168.299 86.2015C175.096 68.672 179.245 66.5752 179.245 80.6811C179.245 91.965 184.037 91.3699 186.357 79.7981C191.213 55.5302 199.217 43.6406 199.217 60.6901C199.217 68.3926 204.325 67.6673 205.446 59.807C205.996 55.9334 208.354 53.3737 211.39 53.3545C214.157 53.3417 218.907 49.2484 221.939 44.2613C227.772 34.6582 237.135 28.0308 240.338 31.2326C241.391 32.2863 242.994 30.3153 243.898 26.8513C244.213 25.6482 244.665 24.5198 245.186 23.5621C246.166 21.7575 247.394 20.5481 248.435 20.5481C250.025 20.5481 256.297 16.0537 262.382 10.5568C271.276 2.51518 280.171 -2.49111 278.879 1.278C278.742 1.67262 277.574 5.50786 276.282 9.80171C272.696 21.7234 262.693 36.5972 252.571 45.0676C250.452 46.8402 248.379 48.9199 246.635 50.9591C244.252 53.7449 242.478 56.4539 242.026 58.2051C241.242 61.2362 239.476 63.5612 238.099 63.3671C236.722 63.1751 234.121 65.9886 232.322 69.6234C230.518 73.2538 224.267 78.7977 218.421 81.9397C212.58 85.0795 207.791 89.207 207.787 91.1161C207.787 92.0141 207.143 93.1766 206.094 94.3498C204.918 95.668 203.229 97.0012 201.361 97.9931C197.831 99.868 193.213 103.833 191.107 106.809C188.438 110.574 184.545 111.95 178.264 111.352C170.026 110.565 169.301 111.16 169.796 118.342C170.303 125.829 169.728 126.192 157.439 126.192C144.596 126.192 144.554 126.226 146.426 134.763C148.809 145.626 142.78 148.598 132.295 141.727C128.871 139.483 126.441 138.299 124.944 138.227C122.446 138.105 122.544 141.085 124.944 147.397C130.517 162.062 124.825 165.206 111.586 154.784C101.966 147.218 98.9432 149.839 101.173 163.809C103.241 176.722 96.355 177.592 83.6444 166.027C73.6669 156.951 66.1412 163.954 74.1786 174.83C82.4634 186.035 79.1759 188.239 62.8879 182.396C41.5131 174.734 38.8268 175.485 43.9307 187.71C46.2545 193.275 47.4015 199.04 46.4847 200.531C44.2974 204.07 24.8797 196.075 20.0146 189.631C16.8593 185.446 16.4415 186.927 17.162 199.736C17.84 211.811 18.8463 214.379 22.2915 212.892C44.0884 203.479 48.9024 215.247 33.497 240.298C28.6277 248.218 25.1356 257.435 25.6472 261.029C26.3891 266.247 29.2715 263.162 40.4556 245.185C55.0935 221.653 68.3243 211.438 77.5087 216.581C81.5082 218.822 80.6299 221.557 70.7505 237.632C60.8199 253.783 56.0998 268.953 61.0032 268.953C66.704 268.953 74.2255 261.27 81.9858 247.51C96.6876 221.45 115.321 218.165 106.499 243.188C100.951 258.911 102.602 260.72 110.413 247.474C118.335 234.05 132.786 233.587 131.242 246.81L130.33 254.647L138.61 249.89C144.064 246.759 148.762 245.938 152.365 247.493C155.376 248.79 166.189 250.082 176.392 250.362C182.831 250.539 191.35 250.788 198.927 251.021L210.635 251.392C240.193 252.371 240.935 263.113 211.45 263.201C199.485 263.237 195.963 264.372 193.495 268.994C191.009 273.633 189.342 274.162 184.83 271.746C181.001 269.698 179.245 269.683 179.245 271.712C179.245 275.764 169.745 275.442 165.545 271.24C162.884 268.574 162.121 269.173 162.121 273.926C162.121 282.784 157.482 284.301 150.809 277.627C143.151 269.965 142.656 270.186 143.151 281.091C143.744 294.16 132.359 295.93 122.991 284.226L116.493 276.093L116.472 289.845C116.455 308.782 104.618 308.665 94.1549 289.631C85.1155 273.188 81.3675 276.643 83.7766 299.19C86.9404 328.756 72.4688 327.111 51.5118 295.527C39.4238 277.302 36.5798 280.156 43.5256 303.535C55.3408 343.363 39.9951 343.355 18.1726 303.518C2.82692 275.502 -4.66898 282.697 6.59192 314.639C15.7294 340.552 10.762 350.108 0 344.419V245.242C0.631054 244.144 1.28341 243.007 1.96136 241.83C10.2461 227.391 13.6359 222.124 12.3268 218.613C11.4101 216.16 8.19938 214.565 2.76294 211.299C1.79504 210.717 0.869831 210.113 0 209.497V149.494Z" fill="url(#paint4_linear_706_33)"/>
<path d="M595.963 970.095C616.711 974.18 619.086 977.068 608.601 985.434C601.729 992.316 599.605 993.055 613.519 991.059C627.411 989.063 633.416 996.096 625.009 1004.52C619.467 1010.07 619.508 1010.14 627.46 1008.87C637.387 1007.28 643.152 1010.56 639.743 1015.86C637.858 1018.8 639.084 1020.21 644.487 1021.33C648.49 1022.16 651.511 1024.1 651.192 1025.64C650.872 1027.18 653.125 1028.96 656.197 1029.59C659.27 1030.23 661.405 1032.62 660.933 1034.89C660.461 1037.17 664.856 1042.85 670.694 1047.51C676.54 1052.19 681.914 1057.55 682.636 1059.45C685.15 1066.03 658.438 1053.56 644.284 1041.55C641.918 1039.54 637.524 1037.38 634.526 1036.76C631.52 1036.13 628.504 1034.09 627.817 1032.22C627.356 1030.94 625.46 1029.88 623.067 1029.38C621.951 1029.15 620.724 1029.05 619.481 1029.1C614.157 1029.32 611.037 1027.17 607.014 1020.49C603.71 1015.01 601.318 1013.09 600.79 1015.48C597.651 1029.83 584.489 1024.41 580.877 1007.27C578.88 998.145 579.861 977.95 567.467 991.152C557.673 1001.58 546.11 991.466 553.034 978.518C557.993 969.252 551.333 964.971 543.458 972.371C534.252 981.025 530.257 978.147 530.257 962.853C530.257 954.203 528.896 949.957 525.745 948.747C519.392 946.309 518.842 946.497 518.842 951.111C518.842 953.363 517.469 958.824 515.785 963.245C511.912 972.138 508.845 968.616 502.23 951.46C490.505 929.311 484.599 924.759 484.599 937.86C484.599 957.934 472.924 954.099 462.393 930.565L456.99 918.498L450.104 929.149C441.031 943.178 434.801 944.204 430.674 932.357C428.9 927.271 425.365 920.806 422.81 917.988C419.033 913.808 418.837 912.056 421.774 908.522C424.861 904.8 424.102 904.183 416.457 904.183C408.966 904.183 407.546 905.271 407.546 911.007C407.546 912.391 407.226 914.078 406.68 915.834C405.742 918.835 404.143 922.037 402.331 924.275L397.112 930.719L390.917 920.682C387.505 915.166 384.717 906.668 384.717 901.807C384.717 895.713 382.832 891.957 378.649 889.715C372.113 886.216 367.73 889.732 367.64 898.552C367.546 907.818 359.125 915.855 352.968 912.558C344.709 908.138 335.094 884.691 339.413 879.489C343.434 874.638 342.202 873.136 333.38 872.123C326.221 871.302 323.087 875.447 314.823 896.683C311.003 906.498 309.988 907.297 305.801 903.821C300.232 899.194 284.836 865.946 284.836 858.542C284.836 855.716 282.806 852.623 280.32 851.669C273.153 848.913 270.628 849.63 272.283 853.941C274.278 859.144 263.039 885.233 256.097 891.519C251.006 896.133 250.605 896.101 248.776 891.011C239.877 866.291 235.336 856.558 231.234 853.425C227.324 850.443 227.098 848.892 229.981 844.863C246.499 821.794 229.269 825.716 210.845 849.223C208.431 852.301 205.937 855.17 203.643 857.557C199.793 861.565 196.514 864.212 195.158 864.212C185.986 864.212 181.296 827.32 189.146 816.93C194.945 809.26 194.642 808.264 185.346 804.416C170.905 798.426 158.719 803.737 157.947 816.354C156.902 833.641 137.075 857.047 128.155 851.531C127.447 851.093 126.808 849.346 126.296 846.684C125.516 842.638 125.026 836.478 125.026 829.586C125.026 810.877 124.655 809.697 119.32 811.386C115.671 812.547 113.867 812.193 113.863 810.661C113.854 808.946 116.11 805.755 120.565 801.568C123.043 799.241 124.586 797.368 125.303 795.668C126.079 793.816 125.883 792.17 124.851 790.361C123.375 787.793 120.924 782.157 119.393 777.842C116.775 770.468 107.902 766.609 107.902 772.844C107.902 774.412 105.821 775.7 103.276 775.7C101.779 775.7 100.854 775.873 100.474 776.293C99.971 776.846 100.406 777.823 101.706 779.393C104.666 782.953 75.3897 838.201 68.188 842.653C64.9987 844.628 62.4788 828.276 61.5066 799.273C61.0333 785.02 59.7072 778.589 57.2512 778.576C50.9791 778.542 53.418 769.817 62.1376 761.093L70.5844 752.64L61.4213 747.049C44.6941 736.842 38.0851 739.15 37.3986 755.432C36.3881 779.406 15.1924 828.989 7.091 826.32C4.39197 825.431 1.88476 822.099 0.00439453 817.455V751.642L3.3089 746.292L0.00439453 746.923V689.578C1.91461 692.923 4.51137 696.065 7.30847 697.916C15.8106 703.533 16.3607 696.805 8.17401 687.362C5.11681 683.832 2.08523 679.463 1.42859 677.642C1.12159 676.78 0.601337 676.217 0.00439453 675.988V627.739C3.98685 626.203 8.5151 624.577 12.5871 623.244L27.1354 618.488L20.2067 605.015C14.7105 594.316 13.5934 588.738 14.8 577.974C16.2839 564.737 16.1304 564.414 8.52362 564.414C5.30866 564.414 2.45612 564.833 0.00439453 565.624V534.983C6.48122 527.342 5.92692 525.412 0.00439453 523.758V497.709C5.39393 506.673 15.7083 514.97 19.7845 511.28C22.6968 508.641 24.3767 507.225 24.5729 505.625C24.8372 503.494 22.4623 501.039 16.8553 494.928C15.0602 492.97 12.8898 490.555 10.6769 488.059C7.27004 484.218 3.76097 480.182 1.36041 477.328C0.882859 476.761 0.430904 476.234 0.0045166 475.745V420.87C5.91851 413.752 12.2887 410.022 17.8445 410.817C26.3552 412.035 26.4576 421.192 18.126 436.862C3.28342 464.799 11.4658 466.769 29.0415 439.496C43.334 417.304 49.5507 411.15 59.0507 409.783C70.8616 408.078 72.8273 416.278 64.1503 431.088C51.3075 453.005 55.5415 458.553 68.9258 437.352C78.7753 421.751 89.2687 413.085 98.3039 413.085C106.738 413.085 106.708 414.631 97.9926 428.79C89.7548 442.171 88.3051 454.62 95.2979 451.934C97.7794 450.981 100.329 450.204 100.956 450.204C101.242 450.204 102.163 448.901 103.45 446.755C105.002 444.17 107.083 440.362 109.228 436.137C119.977 414.906 135.144 412.564 132.244 432.581C131.413 438.349 131.537 441.139 132.53 438.779C138.325 425.028 153.564 419.042 153.564 430.52C153.564 435.198 154.677 436.041 158.561 434.302C163.221 432.218 176.844 430.484 193.516 429.855C197.443 429.708 201.933 428.62 203.506 427.436C205.071 426.252 208.286 425.26 210.64 425.228C212.994 425.203 221.982 424.177 230.616 422.956C250.14 420.196 247.203 427.225 226.395 433.052C219.423 435.006 213.987 438.058 214.32 439.833C214.656 441.659 212.124 442.677 208.499 442.171C204.969 441.68 202.078 442.781 202.078 444.62C202.078 446.753 199.52 447.324 195.017 446.194C189.487 444.805 188.319 445.356 189.619 448.741C191.704 454.18 179.369 454.76 173.693 449.487C170.534 446.557 170.214 446.936 171.907 451.633C173.037 454.769 174.192 458.596 174.465 460.129C175.331 464.935 162.113 465.127 154.928 460.417C151.513 458.18 148.758 456.774 147.078 456.258C144.759 455.545 144.469 456.52 147.287 459.338C147.91 459.963 148.494 460.874 149.001 461.944C150.02 464.105 150.711 466.917 150.711 469.333C150.711 479.487 139.881 477.633 127.29 465.327C115.385 453.698 113.223 456.524 119.892 474.982C127.14 495.043 106.793 493.836 86.4589 472.998C71.0364 457.198 69.2754 458.753 79.5428 479.105C94.492 508.729 81.8538 509.597 54.791 480.814C35.2667 460.042 30.7555 463.41 43.739 489.079C52.0834 505.583 51.6101 514.556 42.5451 511.677C36.8102 509.855 31.8428 524.46 29.2248 550.85C27.6727 566.458 36.7377 565.641 45.0736 549.421C52.1346 535.682 72.9636 513.018 78.5365 513.018C83.7853 513.018 84.5486 536.395 79.5129 542.999C78.3191 544.568 76.6305 548.745 75.7692 552.277C71.5693 569.442 105.838 545.778 118.058 523.069C126.147 508.057 127.882 510.568 127.882 537.286C127.882 566.07 129.179 566.669 144.439 544.899C164.901 515.719 170.082 514.665 165.622 540.597C159.861 574.028 173.519 573.478 194.629 539.43C205.178 522.406 208.397 523.835 207.288 545.048C206.257 564.798 213.817 573.523 217.211 556.507C219.134 546.904 240.849 523.372 245.267 526.107C247.211 527.304 247.616 533.532 246.392 543.344C243.57 565.92 254.413 565.842 268.901 543.178C286.226 516.086 297.857 517.645 286.226 545.503C279.983 560.451 285.232 558.259 302.394 538.75C318.576 520.354 325.146 519.785 317.783 537.416C311.28 552.994 316.478 555.786 327.261 542.506C332.143 536.495 338.778 528.366 342.006 524.439L347.877 517.3L346.193 533.005C344.304 550.592 343.519 550.914 362.724 526.15C372.586 513.43 376.147 513.164 376.185 525.154L376.215 534.432L387.817 522.297C402.045 507.409 404.693 507.182 404.693 520.83V531.501L414.867 516.387C429.914 494.024 443.892 489.668 434.626 510.226C425.57 530.322 433.13 530.06 451.631 509.629L467.953 491.605L466.861 502.311C465.369 516.911 468.388 515.783 480.194 497.315C491.532 479.583 496.013 477.603 496.013 490.338V499.062L502.819 491.142C508.681 484.322 510.268 483.753 514.237 487.048C517.209 489.521 518.842 489.751 518.842 487.712C518.842 481.522 541.031 469.408 548.796 471.356C553.917 472.644 556.564 471.897 557.737 468.832C558.151 467.753 559.033 466.763 560.159 466.002C561.532 465.072 563.259 464.481 564.922 464.481C567.953 464.481 575.62 461.834 581.956 458.6C588.296 455.364 596.244 453.118 599.621 453.602C609.526 455.027 588.646 475.816 566.431 486.65C556.351 491.568 547.342 497.584 546.408 500.022C545.474 502.46 542.097 504.452 538.908 504.452C537.62 504.452 536.431 504.636 535.467 504.945C534.043 505.403 533.113 506.135 533.113 506.958C533.113 510.1 520.782 514.885 506.635 517.229C500.704 518.213 496.585 520.201 497.48 521.642C497.996 522.479 497.258 523.511 495.702 524.437C494.564 525.113 492.986 525.732 491.136 526.173C486.757 527.216 479.636 530.104 475.312 532.585C468.793 536.333 465.902 536.516 458.338 533.66C448.39 529.904 444.774 532.271 444.693 542.602C444.646 547.817 433.977 547.817 420.397 542.606C417.813 541.614 416.223 543.79 415.609 549.172C414.419 559.517 407.06 560.985 396.848 552.915L388.998 546.717L388.124 558.421C387.071 572.422 380.828 574.039 370.45 562.985C360.208 552.081 353.284 553.389 355.305 565.837C357.479 579.254 346.065 580.171 335.367 567.446C323.901 553.811 312.905 558.267 320.716 573.386C327.261 586.046 323.948 586.62 303.238 576.4C279.574 564.724 275.749 564.562 279.843 575.415C286.976 594.312 265.742 594.57 252.562 575.741C247.744 568.862 244.883 573.102 244.883 587.138C244.883 591.53 243.007 596.679 240.713 598.58C234.727 603.552 212.883 585.449 215.33 577.541C216.635 573.307 215.94 572.522 212.162 573.973C209.497 574.994 206.001 575.833 204.38 575.833C203.494 575.833 202.935 576.761 202.735 578.414C202.53 580.086 202.692 582.501 203.242 585.444C207.838 609.942 188.967 609.921 182.46 585.419C178.755 571.473 167.835 572.518 167.835 586.82C167.835 609.721 162.663 612.528 148.131 597.532C140.972 590.139 139.199 586.34 140.708 581.596C142.397 576.266 141.714 575.502 135.996 576.315C129.955 577.17 129.17 579.03 127.882 595.596C127.064 606.12 125 614.411 123.051 615.053C119.154 616.333 100.218 591.922 97.6088 582.255C94.3598 570.238 86.2072 574.331 87.448 587.353C88.7911 601.434 85.6145 624.373 82.3185 624.373C80.9925 624.373 75.927 617.304 71.0534 608.667C67.233 601.897 62.7388 596.114 59.7712 593.91C58.944 593.296 58.2319 592.961 57.6862 592.961C55.9252 592.961 54.9018 592.483 54.4882 590.939C54.0362 589.241 54.3177 586.255 55.1662 581.202C58.7265 560.129 50.105 569.958 40.5752 597.829C35.7229 612.035 28.9903 627.538 25.6133 632.282C20.4583 639.526 20.1555 641.168 23.7414 642.544C26.0823 643.444 28.001 646.987 28.001 650.422C28.001 656.162 28.4018 656.305 32.9983 652.203C34.512 650.85 36.6609 649.841 39.4495 649.178C42.7924 648.38 47.0563 648.079 52.254 648.276C57.3664 648.466 62.4105 648.261 65.7449 647.802C67.5357 647.557 68.8319 647.237 69.382 646.866C76.3278 642.13 112.294 640.492 108.49 645.083C106.49 647.495 100.721 650.317 95.673 651.352C86.4759 653.239 66.7511 676.601 58.5304 695.361C54.5351 704.473 51.1752 707.125 46.0969 705.175C41.3299 703.345 41.0996 707.718 45.7217 712.34C46.6043 713.225 47.1245 714.012 47.2396 714.797C47.4699 716.408 45.9988 718.016 42.4811 720.48L35.7911 725.17L43.6239 729.276C51.9854 733.658 55.3708 732.039 56.9996 722.877C57.6691 719.102 60.6666 716.862 65.8344 716.263C70.1409 715.766 73.6586 713.995 73.6586 712.331C73.6586 710.414 77.6922 709.942 84.6125 711.052C93.8822 712.532 96.6026 711.702 102.282 705.657C108.998 698.501 131.647 690.043 144.085 690.043C151.423 690.043 131.089 722.419 113.257 739.133C104.896 746.974 102.146 758.568 108.644 758.568C110.622 758.568 113.824 756.029 115.764 752.924C116.532 751.693 117.308 750.737 118.169 750.029C120.34 748.254 123.077 748.043 127.678 748.963C135.016 750.43 135.886 749.927 134.589 744.965C133.306 740.042 135.903 738.434 154.037 732.924C165.549 729.426 178.618 724.678 183.082 722.37C199.323 713.97 194.062 730.661 170.709 761.631C153.005 785.103 156.472 785.933 194.531 767.335C220.741 754.532 239.178 749.293 239.178 754.662C239.178 757.708 227.214 776.714 220.553 784.263C206.964 799.648 212.61 822.675 226.548 808.731C229.009 806.267 232.718 804.249 234.795 804.249C236.867 804.249 239.246 802.481 240.078 800.314C243.591 791.152 283.518 783.207 286.528 791.069C288.788 796.95 280.081 815.674 275.093 815.674C270.411 815.674 263.303 826.484 266.13 829.315C272.044 835.23 297.397 830.473 319.096 819.381C345.182 806.05 346.282 806.958 336.202 833.487C326.306 859.551 329.402 861.328 357.42 845.654C385.847 829.744 393.428 832.203 380.265 853.058C364.634 877.842 379.779 886.5 407.452 868.593C431.841 852.815 438.174 854.709 426.171 874.207C422.308 880.485 419.101 887.876 419.054 890.623C418.93 897.325 428.102 897.063 432.362 890.239C435.722 884.853 458.21 875.63 467.987 875.63C475.739 875.63 474.523 886.775 465.757 895.922L458.338 903.671L465.863 908.609C473.155 913.387 473.828 913.304 487.23 906.009C513.738 891.577 526.948 896.914 506.716 913.886C492.295 925.983 496.423 927.259 524.603 919.42C546.046 913.453 548.996 916.126 534.474 928.359C519.921 940.612 523.034 943.457 544.477 937.489C569.668 930.482 576.622 933.44 558.816 943.579C545.781 950.995 548.446 953.067 568.397 951.023C587.529 949.061 595.34 952.621 584.557 958.393C574.963 963.529 577.897 966.539 595.963 970.095Z" fill="url(#paint5_linear_706_33)"/>
</g>
<defs>
<linearGradient id="paint0_linear_706_33" x1="674.163" y1="834.128" x2="-443.313" y2="253.332" gradientUnits="userSpaceOnUse">
<stop stop-color="#4F772D"/>
<stop offset="1" stop-color="#90A955"/>
</linearGradient>
<linearGradient id="paint1_linear_706_33" x1="674.163" y1="834.128" x2="-443.313" y2="253.332" gradientUnits="userSpaceOnUse">
<stop stop-color="#4F772D"/>
<stop offset="1" stop-color="#90A955"/>
</linearGradient>
<linearGradient id="paint2_linear_706_33" x1="759.28" y1="1108.25" x2="-213.383" y2="328.025" gradientUnits="userSpaceOnUse">
<stop stop-color="#4F772D"/>
<stop offset="1" stop-color="#90A955"/>
</linearGradient>
<linearGradient id="paint3_linear_706_33" x1="759.28" y1="1108.25" x2="-213.383" y2="328.025" gradientUnits="userSpaceOnUse">
<stop stop-color="#4F772D"/>
<stop offset="1" stop-color="#90A955"/>
</linearGradient>
<linearGradient id="paint4_linear_706_33" x1="759.28" y1="1108.25" x2="-213.383" y2="328.025" gradientUnits="userSpaceOnUse">
<stop stop-color="#4F772D"/>
<stop offset="1" stop-color="#90A955"/>
</linearGradient>
<linearGradient id="paint5_linear_706_33" x1="759.28" y1="1108.25" x2="-213.383" y2="328.025" gradientUnits="userSpaceOnUse">
<stop stop-color="#4F772D"/>
<stop offset="1" stop-color="#90A955"/>
</linearGradient>
<clipPath id="clip0_706_33">
<rect width="683" height="1087" fill="white" transform="matrix(-1 0 0 1 683 0)"/>
</clipPath>
</defs>
</svg>
