<svg width="720" height="706" viewBox="0 0 720 706" fill="none" xmlns="http://www.w3.org/2000/svg">
<g clip-path="url(#clip0_708_93)">
<path d="M749.506 437.385L728.415 406.948C712.878 403.973 703.702 401.419 704.209 400.008C705.543 396.91 700.556 386.887 695.773 382.81C693.557 380.868 687.96 378.441 683.279 377.337C680.228 376.618 675.781 375.482 671.523 374.394L671.522 374.394C669.245 373.813 667.022 373.245 665.096 372.762C653.337 369.606 650.431 373.576 661.953 377.331C665.843 378.549 669.438 379.971 669.642 380.264C669.846 380.558 663.672 384.836 656.017 389.488C643.161 397.309 640.255 398.453 625.804 400.205C597.604 404.093 527.318 417.577 525.271 419.647C522.252 422.826 550.226 420.182 583.3 414.221C627.105 406.478 647.492 403.873 653.914 405.293C658.347 406.352 660.913 408.486 664.984 414.361C672.719 425.524 673.363 425.512 687.214 415.045L699.008 406.004L709.207 407.85C718.909 409.606 728.78 415.374 733.563 422.277C735.395 424.921 734.525 426.177 725.434 433.78C713.753 443.612 707.998 446.296 696.069 447.605C687.159 448.562 667.575 454.523 642.744 463.902C634.614 466.926 623.872 470.891 618.547 472.625L609.082 475.922L611.242 468.991C614.476 458.272 613.526 455.017 605.305 450.061C596.282 444.574 584.375 441.52 570.433 441.18C559.171 440.94 548.848 443.311 548.995 446.035C548.961 446.928 551.392 452.635 554.275 458.68C560.608 471.901 565.493 476.125 579.457 480.579C584.794 482.316 588.741 483.93 588.3 484.235C587.271 484.948 520.174 504.918 519.28 504.885C518.783 504.795 518.839 502.364 519.382 499.38C521.734 486.446 513.569 470.581 500.238 462.645C486.703 454.415 459.599 452.977 447.467 459.645L442.898 462.158L450.43 478.679C461.771 503.211 467.719 511.481 476.29 513.803C480.078 514.874 482.826 516.014 482.532 516.217C482.091 516.523 470.207 520.41 455.903 524.886C427.545 533.883 409.51 537.684 410.742 534.439C412.269 530.99 405.281 522.789 399.446 520.962C390.92 518.391 381.32 519.608 361.284 525.231L342.977 530.524L348.677 538.749C354.274 546.827 354.873 547.064 366.011 548.694C372.275 549.571 380.563 549.915 384.476 549.596L391.452 548.674L375.679 559.821C360.539 570.312 359.849 570.573 359.487 566.91C357.395 549.447 334.475 551.85 314.733 571.399C305.959 580.087 305.913 580.336 310.21 582.141C312.607 583.089 317.571 586.171 321.337 588.779C325.057 591.637 329.806 593.781 331.694 593.994C334.77 594.037 334.193 595.089 328.483 600.349C322.479 605.814 321.903 606.866 324.141 610.097L326.584 613.622L328.664 607.833C330.078 603.592 335.234 597.846 347.977 586.408C367.651 568.645 388.004 555.629 407.95 547.678L420.116 542.944L414.847 547.899C408.945 553.51 405.383 559.674 400.849 572.598C396.79 584.324 399.538 585.463 410.54 576.536C420.366 568.423 424.221 562.056 426.878 549.563L428.755 540.654L442.878 537.172C450.578 535.098 459.612 532.751 462.677 532.149L468.308 530.856L462.994 538.886C460.144 543.252 457.397 547.764 457.318 548.906C456.673 551.744 485.19 557.419 494.394 556.259C503.35 555.054 509.851 549.679 516.986 537.996C522.628 528.87 522.13 523.127 515.436 520.374C512.937 519.28 510.936 518.275 511.083 518.174C514.814 516.023 553.711 505.593 551.167 507.573C542.947 513.921 545.061 515.717 559.523 514.609C562.383 514.318 565.452 514.03 568.366 513.757L568.373 513.756C573.326 513.291 577.827 512.869 580.069 512.547C592.337 510.785 597.561 503.253 590.946 496.532C590.796 496.387 590.651 496.248 590.511 496.115C589.418 495.071 588.676 494.363 588.696 493.677C588.739 492.229 592.176 490.879 602.866 486.681C603.408 486.468 603.969 486.248 604.548 486.02C626.123 477.593 643.988 472.605 668.163 468.246C704.649 461.596 720.045 456.465 749.506 437.385Z" fill="#DDDDDD"/>
<path d="M720.173 250.533V216.294L720.144 216.288C716.21 215.573 709.951 213.965 706.017 212.714C702.261 211.285 698.327 210.213 697.433 210.213C695.644 210.213 709.951 237.909 716.21 246.307C717.067 247.475 718.501 248.983 720.173 250.533Z" fill="#DDDDDD"/>
<path d="M720.173 212.734V178.008C717.394 178.483 715.096 178.954 713.885 179.3C708.52 181.086 690.637 191.093 690.637 192.344C690.637 192.88 694.214 195.381 698.327 198.062C702.44 200.742 710.666 206.103 716.568 210.213L720.173 212.734Z" fill="#DDDDDD"/>
<path fill-rule="evenodd" clip-rule="evenodd" d="M720.173 165.014V111.949C715.521 113.693 715.844 114.4 717.641 116.58C718.714 118.01 719.787 125.515 719.965 133.377L720.144 147.672H688.491C658.269 147.672 651.652 148.387 627.152 153.926C621.251 155.177 613.382 156.785 609.806 157.321L603.189 158.572L606.05 152.854C616.243 132.305 577.616 103 540.24 103H529.868L535.054 116.938C537.913 124.435 540.771 132.29 541.49 134.265L541.492 134.27C542.386 136.593 541.313 135.878 538.094 132.305C531.299 124.264 513.058 120.154 499.825 123.728C494.46 125.157 494.638 126.587 501.076 133.734C506.62 139.81 509.303 145.349 507.514 147.136C506.978 147.851 498.036 146.064 487.843 143.205C477.65 140.524 468.171 138.738 466.741 139.274C464.058 140.167 482.657 149.101 497.5 153.926C502.865 155.713 509.66 159.108 512.343 161.252C516.992 165.183 519.138 165.541 535.054 165.541C544.711 165.541 553.116 166.255 553.832 167.327C556.156 171.08 567.423 172.509 574.218 170.008C577.795 168.757 587.631 167.149 596.214 166.613L611.773 165.719L614.455 175.19C617.316 184.66 623.576 193.237 630.729 197.347L634.305 199.313L630.729 202.172C628.404 203.958 625.364 204.495 621.787 203.78C618.926 203.244 613.561 202.172 610.163 201.457C603.725 200.206 573.861 203.065 571.715 205.209C570.999 205.745 571.357 208.068 572.609 210.034C574.397 213.608 574.218 213.786 569.569 212.535C563.131 210.749 547.036 210.749 519.496 212.535L497.5 213.965V209.855C497.5 203.244 492.85 198.24 483.73 194.845C478.901 193.059 474.431 190.736 473.358 189.663C471.212 187.162 449.752 182.873 447.427 184.303C446.354 184.839 445.639 187.698 445.639 190.736C445.639 193.595 445.281 195.918 444.923 195.918C444.6 195.918 440.77 194.312 435.943 192.287L435.936 192.285L434.372 191.629C425.789 187.698 424.537 186.447 423.464 180.908C422.033 173.76 413.27 165.183 404.15 162.146C399.5 160.716 371.424 156.606 364.807 156.606C364.092 156.606 364.271 158.75 365.165 161.252C366.238 163.754 366.953 168.221 366.953 171.08V176.619L350.501 175.368C316.165 173.224 310.8 173.224 310.085 176.619C309.548 179.3 311.337 179.657 321.709 180.193L333.869 180.729L326.359 183.231C322.067 184.66 318.669 186.268 318.669 186.804C318.848 187.341 322.424 190.2 326.895 193.059C337.625 199.849 347.997 201.636 359.085 198.955C366.953 196.99 367.847 196.275 367.311 192.344C366.953 189.842 365.701 186.804 364.807 185.554C363.734 184.303 363.377 182.873 363.913 182.159C364.628 181.623 366.596 184.839 368.563 189.306C372.497 198.24 375.537 200.563 386.267 202.35C391.274 203.065 395.208 202.529 399.322 200.563C402.541 198.955 406.654 198.062 408.442 198.777C410.23 199.313 414.165 198.419 417.205 196.99C422.391 194.488 423.464 194.488 432.763 198.419C442.241 202.35 442.956 203.244 442.956 208.604V214.501L420.602 217.717C408.263 219.504 394.135 222.185 389.128 223.614C377.504 227.009 352.647 238.624 352.647 240.768C352.647 240.877 352.644 240.982 352.641 241.081C352.632 241.443 352.624 241.733 352.761 241.915C353.313 242.649 356.226 241.61 370.905 236.371L371.603 236.122C381.26 232.727 390.738 229.868 392.526 229.868C394.314 229.868 401.11 234.335 407.727 239.696C422.57 252.025 429.723 254.527 442.956 251.489C454.223 248.988 459.945 243.27 459.945 234.335C459.945 227.367 463.164 224.329 468.708 225.758C471.033 226.294 473.358 225.937 474.073 224.865C474.609 223.793 489.989 222.006 510.018 220.755C554.189 217.896 568.496 218.253 572.609 221.827C574.218 223.257 577.974 224.508 580.835 224.508C591.207 224.508 591.744 227.367 582.087 232.191C573.503 236.658 573.145 236.658 571.178 233.263C569.926 231.476 565.634 228.26 561.521 226.116C554.547 222.542 552.222 222.363 535.412 223.435C514.668 224.686 512.879 225.222 515.204 229.511C516.098 231.298 517.708 236.837 518.602 242.198C520.032 250.239 519.854 251.668 517.35 252.561C503.222 257.743 492.85 278.114 500.003 287.406C501.971 290.086 502.865 290.265 509.66 287.942C513.595 286.512 524.861 284.547 534.697 283.653C564.025 280.973 572.072 275.255 570.463 258.279L569.569 249.166L579.583 244.521C585.127 242.019 591.922 238.445 594.605 236.48C598.539 233.799 600.685 233.442 603.546 234.693C605.692 235.586 613.025 236.658 619.641 236.837C640.207 237.552 645.572 230.047 635.021 215.394C632.875 212.357 631.444 209.855 631.802 209.498C631.981 209.408 633.188 208.56 634.999 207.286C636.809 206.013 639.224 204.316 641.816 202.529C646.824 198.955 655.05 194.131 660.057 191.629C664.885 189.127 670.429 185.375 672.218 183.588C674.006 181.623 687.418 176.083 702.082 171.08L720.173 165.014ZM695.108 165.362L709.414 159.287L686.166 158.393C673.469 157.857 662.561 157.678 662.203 157.857C661.845 158.214 663.097 158.929 664.885 159.465C669.714 161.252 676.331 167.506 676.331 170.544C676.331 171.973 677.404 172.688 678.655 172.152C679.227 171.962 681.626 170.96 684.933 169.579C687.833 168.367 691.432 166.865 695.108 165.362ZM545.248 149.995C544.711 148.208 544.353 149.28 544.353 152.139C544.353 155.177 544.711 156.428 545.248 155.355C545.605 154.105 545.605 151.603 545.248 149.995Z" fill="#DDDDDD"/>
<path fill-rule="evenodd" clip-rule="evenodd" d="M750 358.435C735.615 358.435 719.486 355.166 703.357 348.847C695.946 346.014 685.484 342.31 680.253 340.784C674.804 339.041 670.227 336.644 669.791 335.337C669.355 334.247 673.932 331.85 679.817 330.325C685.702 328.799 692.459 325.531 694.856 322.916C699.215 317.904 704.01 309.841 704.01 307.009C704.01 303.958 676.33 307.88 667.393 312.238C658.239 316.597 658.239 316.597 655.841 312.456C652.572 306.355 655.187 303.958 665.214 303.958C676.329 303.958 687.445 296.985 692.023 287.179C695.728 279.334 695.946 277.809 693.33 273.887C692.023 271.708 688.971 272.143 679.163 276.502C672.406 279.552 664.124 283.91 661.072 286.525C658.021 288.922 654.534 290.884 653.444 290.884C649.085 290.884 654.316 274.541 661.726 265.606C665.867 260.595 670.009 252.968 670.663 248.61C671.97 239.893 669.791 225.511 667.175 225.511C666.085 225.511 660.636 229.652 654.969 234.664C645.161 243.816 644.725 244.469 642.982 260.377C641.892 269.311 641.02 277.373 640.802 278.245C640.584 282.167 634.699 279.552 630.558 273.887C625.981 267.567 604.839 258.197 595.248 258.197C590.453 258.197 590.453 258.415 597.428 271.49C605.493 286.525 612.685 293.062 621.404 293.062C624.673 293.062 629.032 293.716 630.994 294.37C634.263 295.677 640.802 305.919 640.802 309.841C640.802 310.713 634.045 311.585 625.763 311.585C612.467 311.585 609.634 312.238 601.351 318.34C596.12 322.044 591.543 326.184 591.325 327.274C590.889 328.581 593.505 330.76 597.21 332.286C605.057 335.554 631.212 334.029 638.84 330.107C642.982 327.71 644.725 328.799 656.277 340.131C663.47 347.104 669.137 353.423 669.137 354.077C669.137 354.948 655.405 355.384 638.622 354.948C613.121 354.73 607.018 353.859 601.133 350.372C592.851 345.578 571.491 320.737 566.26 310.059C564.298 306.137 558.195 293.498 552.746 281.949C537.707 250.789 539.451 243.598 559.067 255.147C567.35 259.941 569.529 260.377 576.94 258.415C585.876 256.018 595.031 250.353 595.031 247.52C595.031 245.123 572.145 236.843 563.644 235.971C552.528 234.881 554.708 230.305 568.439 226.601C583.043 222.461 597.21 212.219 597.21 205.682C597.21 202.195 595.684 201.542 586.966 201.542C581.081 201.542 574.324 200.888 571.491 200.234C567.568 199.145 564.516 201.106 555.144 211.13C548.823 217.885 543.156 223.332 542.284 223.332C541.194 223.332 540.54 218.32 540.54 212.437C540.54 200.234 536.617 189.121 530.95 184.327C526.155 180.187 525.501 181.276 522.668 197.619C520.488 211.129 520.706 212.219 526.155 221.589C531.822 231.395 533.348 241.419 529.86 247.084C526.591 252.314 522.232 248.392 513.296 232.049C506.103 218.974 500.872 213.091 483.871 198.927C463.383 181.712 451.395 168.855 445.51 157.524L442.459 151.423L455.536 152.948C466.434 154.038 468.614 153.602 468.614 150.987C468.614 146.411 450.523 130.068 441.151 126.146C433.304 122.877 430.907 115.032 436.574 110.238C438.971 108.495 440.933 110.02 446.382 117.647C451.395 124.838 455.318 127.889 461.857 129.632C470.793 132.029 481.691 130.722 481.691 127.235C481.691 125.71 473.627 118.519 457.716 105.88C448.562 98.6892 454.882 97.8175 468.178 104.573C477.55 109.367 483.653 110.892 493.025 111.11C499.782 111.11 505.885 110.456 506.757 109.803C507.411 108.931 507.411 104.355 506.539 99.5608C505.231 91.4982 504.359 90.4088 493.897 85.8328C483.871 81.4746 481.909 81.2566 472.973 83.8715C467.524 85.3968 460.985 87.1402 458.37 87.576C450.741 89.3193 449.869 82.9999 456.626 74.0656C463.601 65.1314 464.908 50.7496 459.459 45.3019C456.408 42.4691 455.318 42.905 448.126 49.878C438.317 59.6839 431.561 72.7581 431.561 81.6923C431.561 88.4475 421.97 107.841 418.483 107.841C417.611 107.841 414.342 103.919 411.072 98.9072C405.405 90.4088 387.969 77.3343 382.084 77.3343C375.545 77.3343 381.43 99.5609 390.584 109.585C393.2 112.2 399.52 116.993 404.752 120.044C412.38 124.402 414.124 126.581 414.124 132.029C414.124 135.516 415.65 142.053 417.393 146.411C419.137 150.769 420.227 154.692 419.791 155.345C418.047 156.871 396.251 149.026 386.225 143.36C374.237 136.387 364.647 124.838 355.711 106.97L348.518 92.5878L356.146 85.179C363.339 78.6418 363.993 76.8985 363.993 65.7852C363.993 57.2868 362.903 52.2749 359.852 48.7884L355.711 43.5587L350.915 47.9167C344.595 53.5823 340.017 62.7345 340.017 69.7076C340.017 77.5522 336.748 76.4626 325.414 65.1314C315.606 55.5435 315.388 54.8897 317.786 48.1346C319.311 44.2123 320.401 36.5855 320.401 30.9199C320.401 21.9857 319.311 19.8066 309.721 9.34706C297.951 -3.29157 295.118 -3.29164 292.72 10.4365C291.848 16.5379 292.72 20.4604 297.297 28.3051C300.567 33.7528 302.964 39.2005 302.528 40.2901C302.092 41.3796 297.079 40.0721 290.976 37.0214C285.092 34.1886 278.117 31.5737 275.937 31.5737C273.54 31.5737 269.616 29.6126 267.001 27.2156C264.385 24.8186 258.936 21.7679 255.013 20.6784C248.038 18.7172 247.167 19.1529 237.14 29.3945C220.357 46.8271 222.973 48.7884 254.359 42.0333C263.078 40.29 268.091 40.29 274.629 42.2511C285.963 45.7377 285.745 48.3525 273.976 48.1346C266.783 47.9167 262.642 49.4422 256.321 54.0183C251.962 57.5048 248.692 61.427 249.128 62.7344C250.872 67.9642 267.655 69.4896 281.168 65.7852C299.695 60.5554 302.528 60.9913 312.554 71.2329C322.363 81.0388 321.273 82.9999 307.323 79.7313C296.861 77.3343 289.451 79.2954 281.822 86.4863C273.54 94.331 278.553 96.9458 302.31 96.9458C329.773 96.9458 335.004 99.343 343.941 116.34L351.133 129.632H342.633C327.812 129.632 312.119 123.749 308.413 116.775C306.67 113.289 302.31 108.059 298.605 104.791C292.938 100.215 289.669 99.125 280.514 99.3429C259.808 99.5608 258.936 101.522 274.194 111.982C281.822 116.994 287.271 122.005 286.617 123.313C284.438 126.581 256.975 125.492 246.295 121.788C240.846 119.826 233.653 118.955 230.166 119.608C214.691 122.877 207.062 125.71 207.062 128.325C207.062 131.593 221.883 138.348 229.512 138.348C232.127 138.348 235.615 139.22 237.14 140.092C240.628 142.489 236.268 146.411 220.575 154.909C213.601 158.396 207.498 163.626 205.536 167.33C201.613 175.175 201.177 190.21 204.664 196.748L207.28 201.759L215.998 195.004C226.242 186.724 231.038 180.187 231.038 174.303C231.038 168.202 239.102 155.781 243.025 155.781C246.077 155.781 246.077 156.435 243.025 162.318C238.448 171.034 238.666 183.891 243.461 185.634C248.256 187.596 254.795 178.879 261.334 161.882C267.001 147.718 274.847 138.348 281.386 138.348C287.053 138.348 286.617 141.617 280.078 145.757C273.758 149.898 269.18 156.871 267.219 165.151C265.911 170.817 266.129 171.252 270.706 169.945C284.22 166.24 292.284 161.011 298.605 152.077L305.798 142.271L323.452 143.796C343.505 145.539 351.787 148.372 367.262 159.267C374.237 164.061 382.956 167.548 391.238 169.073C420.881 174.739 429.381 179.751 413.034 182.148C408.239 182.801 402.136 184.327 399.52 185.852C391.674 190.21 387.315 188.903 380.776 180.84C363.775 159.703 339.582 162.754 324.76 187.813C320.183 195.658 322.145 196.965 331.299 191.736C340.235 186.506 363.993 188.685 363.993 194.569C363.993 195.658 358.326 200.016 351.133 204.374C344.159 208.733 337.184 213.744 335.658 215.705C332.389 219.628 323.453 220.064 321.273 216.577C319.311 213.309 301.003 215.488 291.63 220.282C279.207 226.383 268.091 239.239 268.091 247.52C268.091 251.224 286.617 247.956 300.567 241.636C322.145 231.831 321.709 236.407 298.387 258.633L280.514 275.848L281.822 286.09C282.476 291.755 284.22 301.343 285.527 307.662L287.925 318.994L299.041 307.662L309.939 296.549L308.631 281.731C306.888 266.26 310.157 255.801 317.132 252.968C322.581 251.007 322.581 251.224 320.401 257.326C319.093 260.376 318.221 265.606 318.221 269.093C318.221 276.066 325.85 295.242 328.684 295.242C329.555 295.242 332.607 290.012 335.222 283.693C338.71 275.194 340.017 267.785 340.017 255.147C340.017 239.893 340.671 237.061 345.684 230.523C352.441 221.589 366.827 211.783 371.622 212.873C374.891 213.526 374.891 214.18 370.75 219.41C368.134 222.461 366.173 228.126 366.173 232.049C366.173 242.072 370.75 258.197 373.583 258.197C377.507 257.98 392.328 230.959 394.289 219.846C397.777 201.76 408.893 196.748 432.65 202.413C461.203 209.168 476.242 220.499 489.102 244.905C493.897 253.839 499.564 261.248 504.359 264.517C515.693 271.926 531.822 292.627 531.822 299.382C531.822 300.907 525.065 301.779 513.513 301.779C496.077 301.779 494.115 302.215 477.332 310.931C457.716 321.173 460.549 321.608 440.497 307.444C435.484 303.958 426.33 299.382 420.009 297.421C409.983 294.152 408.457 292.845 406.931 285.872C403.226 270.836 387.315 264.081 371.622 271.054C360.942 275.848 346.556 287.833 346.556 292.191C346.556 296.331 355.928 298.292 365.737 296.331C370.096 295.459 376.417 294.37 379.904 293.716C388.84 291.973 387.315 296.985 377.725 301.125C373.147 302.868 366.826 306.355 363.557 308.534C359.634 311.367 354.185 312.674 345.031 312.674C329.991 312.674 324.76 315.725 315.824 329.671C311.029 337.298 309.503 342.31 309.503 350.59V361.486L315.606 355.82C318.875 352.769 324.978 348.629 329.119 346.45C333.261 344.489 340.017 339.695 343.723 335.99C347.646 332.286 351.569 329.889 352.223 330.761C352.877 331.414 351.351 338.387 348.518 346.014L343.723 359.742L323.888 364.754C312.99 367.587 297.515 372.599 289.451 376.303C276.591 382.187 273.54 382.84 263.296 381.315C256.975 380.443 232.127 379.136 208.152 378.265L164.56 376.957L160.418 368.241C158.239 363.447 155.187 357.127 153.88 354.077C148.431 342.092 113.339 333.157 113.339 343.617C113.339 344.924 116.826 350.808 120.968 356.474C129.032 367.805 130.776 376.739 125.109 378.918C118.134 381.533 115.737 380.008 111.595 370.856C106.364 359.307 88.2738 343.399 84.5684 347.104C83.0427 348.629 79.5553 349.719 76.5039 349.719C73.6704 349.719 69.5292 351.244 67.3496 353.205C63.6443 356.474 63.8622 357.127 72.3627 365.19C78.2476 370.638 80.6451 374.778 79.7733 376.957C79.1194 378.918 79.3374 382.405 80.6451 384.584C82.3888 388.07 81.517 388.506 71.2729 389.814C64.952 390.685 58.1953 390.685 56.2336 390.031C50.1308 387.634 32.0401 398.53 24.4115 409.207C15.4751 421.846 12.8596 432.523 18.7445 432.523C26.5911 432.523 52.9643 421.846 55.1439 417.924C56.4516 415.745 61.0288 410.515 65.17 406.375L73.0165 398.748L73.6704 405.721C74.1063 409.643 73.2345 414.655 72.1447 417.052C69.3112 422.282 68.8753 438.407 71.4908 439.932C74.5423 441.676 102.005 417.924 105.928 410.079C111.16 399.619 115.519 395.479 121.404 395.479C127.724 395.479 127.724 396.569 120.968 407.464C116.826 414.437 115.737 419.231 115.519 430.78C115.519 439.279 116.391 445.598 117.698 445.598C119.006 445.598 119.878 444.726 119.878 443.419C119.878 442.329 127.942 433.177 137.969 422.935C147.777 412.912 157.585 402.452 159.765 400.055C162.598 396.569 166.085 395.479 173.932 395.479C179.599 395.479 187.881 394.825 192.459 394.172C204.882 391.993 202.921 397.658 185.484 412.694C171.752 424.461 169.137 425.768 157.585 427.076L144.943 428.601L116.173 458.237C99.1717 475.887 82.1709 495.935 74.7602 507.048C62.7724 525.352 61.6826 526.224 54.272 526.224C36.3993 526.224 19.3984 537.773 15.2572 552.373C12.6416 561.307 12.4237 576.343 14.8212 576.125C21.36 575.689 36.6173 565.011 42.5022 556.949C52.7463 542.131 54.9259 543.221 50.1308 560.435C47.9512 568.498 45.5536 577.868 44.8997 581.136C43.8099 585.93 41.6303 587.456 30.9503 590.506C11.7698 596.172 0 609.464 0 625.589V633.434L8.28245 631.909C19.1804 629.948 25.0654 625.807 31.6041 615.566C38.3609 604.888 42.5022 604.017 40.5405 613.823C39.6687 617.745 38.3609 625.807 37.707 631.909C37.0532 637.792 34.6556 646.509 32.476 650.867C26.1552 663.505 28.3348 694.448 36.3993 703.165C39.6687 706.869 40.1046 706.869 44.0279 703.601C46.2075 701.421 47.9511 698.371 47.9511 696.627C47.9511 694.884 49.9128 690.308 52.0924 686.604C54.49 682.899 57.3234 675.926 58.8492 670.914C61.2467 662.852 61.0288 661.108 55.7977 650.867C51.4385 642.368 50.1308 636.485 50.1308 626.025C50.1308 618.399 51.0026 610.772 52.0924 609.246C54.272 605.76 54.4899 606.196 61.2467 624.282C64.0802 631.691 79.5553 650.431 82.8247 650.431C85.6582 650.431 87.6198 633.652 86.0941 623.846C85.0043 617.527 81.735 611.861 74.7602 604.453C64.0802 593.121 60.8108 584.405 62.5545 573.074C63.8622 564.358 66.2598 561.961 69.5292 565.883C86.3121 587.238 96.1203 593.339 108.98 590.506C112.685 589.635 115.519 588.545 115.519 587.674C115.519 587.02 112.249 583.098 108.544 578.957L101.351 571.767L108.326 565.883C112.031 562.614 116.826 556.731 118.788 552.808C124.019 542.131 127.289 545.182 128.814 561.743C130.34 581.136 142.982 606.632 154.316 614.476C158.675 617.527 163.034 619.924 163.906 619.924C166.521 619.924 165.867 590.942 163.252 583.098C161.726 578.521 158.021 574.817 152.572 571.984C141.02 566.101 135.135 557.82 135.135 547.797C135.135 543.003 135.789 539.298 136.879 539.298C137.751 539.298 140.584 543.221 143.2 547.797C147.123 554.552 150.61 557.384 160.201 560.871C175.458 566.537 183.086 566.755 183.086 561.525C182.868 559.564 178.727 551.937 173.714 544.746C165.867 533.85 162.598 531.018 153.662 528.185C140.584 523.609 137.315 519.469 137.315 506.83C137.315 491.359 139.93 489.833 147.559 500.947C156.059 512.931 162.816 517.507 174.368 519.033C184.176 520.34 184.394 520.34 179.817 509.445C175.022 498.114 170.663 493.755 157.585 488.09C145.161 482.424 141.674 477.848 141.674 466.517C141.674 451.481 158.239 439.061 178.509 439.061C184.83 439.061 188.317 436.664 201.395 423.589C215.78 409.207 233.217 397.658 240.846 397.658C245.205 397.658 244.987 400.055 239.32 411.604C235.179 420.321 234.961 422.064 237.576 431.216C241.936 447.123 244.987 447.559 250.218 432.959C253.705 423.807 256.757 419.449 261.77 416.398L268.745 412.258L267.437 418.577C266.783 422.064 264.385 430.998 262.206 438.407C258.282 452.789 256.321 454.314 242.371 454.314C233.435 454.314 225.806 461.505 222.537 473.054C219.922 482.642 219.268 497.896 221.665 497.896C222.537 497.896 227.114 495.935 231.909 493.538C237.794 490.705 242.807 485.911 246.949 479.156C250.872 472.618 253.923 469.786 255.231 471.093C258.065 473.926 252.616 490.269 244.551 503.126C237.14 514.675 235.833 523.391 239.756 537.337L241.935 545.182L253.051 535.158C268.963 520.776 270.924 515.982 266.783 503.561C263.296 493.538 263.949 478.284 267.873 478.284C268.963 478.284 271.36 482.642 273.322 488.09C276.809 496.806 296.208 517.507 301.221 517.507C303.618 517.507 303.4 502.472 300.785 493.538C299.477 488.744 293.81 481.553 285.31 473.708L271.796 461.287L273.322 449.52C275.719 432.306 277.027 428.165 280.296 428.165C282.258 428.165 283.348 430.562 283.348 434.92C283.348 444.508 286.399 449.084 297.297 455.404C309.939 462.813 313.862 462.595 313.862 454.314C313.862 445.162 306.452 431.434 298.605 425.768C295.118 422.936 290.976 417.488 289.669 413.348C287.271 406.375 287.707 405.503 294.464 398.748C298.605 395.043 307.541 389.596 314.516 387.199C327.376 382.405 344.377 380.879 344.377 384.366C344.377 385.237 339.582 391.121 333.479 397.005C323.017 407.464 322.581 408.336 322.581 420.321V432.523L331.299 428.165C341.107 423.153 345.902 417.052 347.864 406.81C349.39 399.184 353.967 397.44 356.364 403.542C357.018 405.721 358.544 415.309 359.634 424.679C362.249 447.559 365.737 451.263 385.353 452.789C393.418 453.443 402.136 454.532 404.969 455.404C409.111 456.711 409.765 456.275 409.765 450.828C409.765 440.15 402.79 431.87 387.097 424.025C371.622 416.18 367.044 411.604 364.865 400.273C363.775 394.826 364.211 393.3 366.826 393.3C368.57 393.3 371.404 394.826 372.929 397.005C376.199 400.927 388.187 406.375 393.418 406.375C397.559 406.375 397.777 397.658 393.418 391.993C391.674 389.814 390.148 387.199 390.148 386.545C390.148 385.673 399.303 384.584 410.418 384.148C427.855 383.276 432.432 382.187 444.638 375.868C452.921 371.727 465.126 362.575 474.063 353.859C497.385 331.196 514.385 325.749 533.566 334.465C548.387 341.22 553.618 346.45 567.786 367.805L580.863 387.852L600.044 388.942C621.84 390.249 621.84 390.467 603.749 404.631L593.941 412.476L586.312 408.336C564.734 396.569 546.643 424.025 562.554 444.291L566.914 449.956L573.888 439.714C580.863 429.255 591.107 423.371 587.402 431.652C586.53 434.049 584.132 440.586 582.171 446.252C579.991 452.571 575.85 458.89 571.709 462.159L595.248 444.726C597.21 437.535 603.749 433.395 603.749 439.278C603.749 440.586 607.89 445.816 613.121 450.828C618.134 455.84 623.365 461.941 624.673 464.338C629.032 471.311 632.956 464.556 633.827 448.866C634.917 432.523 631.866 425.986 621.404 421.628C617.698 420.103 614.647 418.36 614.647 417.488C614.647 413.783 622.058 406.157 632.738 399.184C642.328 392.646 648.213 390.685 664.996 388.07C676.33 386.327 686.138 385.02 686.792 384.802C687.663 384.584 693.548 385.673 699.869 386.763C706.408 388.07 728.422 391.557 748.91 394.39L750 358.435ZM403.444 344.053C406.059 342.528 405.841 334.247 402.79 322.48C400.61 313.982 399.303 312.674 394.507 312.674C388.623 312.674 379.25 318.122 379.25 321.391C379.25 322.48 383.609 325.967 389.058 329.235C394.943 332.504 399.521 337.08 400.174 340.131C400.828 342.963 402.354 344.707 403.444 344.053ZM443.33 344.053C448.561 338.823 447.69 335.99 437.446 324.877C432.214 319.429 426.766 314.853 425.458 314.853C421.534 314.853 422.406 320.737 426.765 324.005C432.214 327.71 435.92 335.119 435.92 341.874C435.92 348.411 438.535 349.065 443.33 344.053ZM380.122 354.948C380.558 353.423 378.596 348.629 375.545 344.053C372.493 339.259 369.006 334.683 368.134 333.593C365.301 330.325 360.724 345.578 361.595 355.602C361.813 359.089 378.814 358.435 380.122 354.948ZM125.109 524.481C126.199 520.994 127.071 503.561 126.635 495.063C126.417 490.051 123.583 490.487 117.48 496.588C114.647 499.421 107.89 503.779 102.441 506.394C95.6844 509.663 90.4533 514.457 85.6582 521.866C81.7349 527.749 78.4656 533.633 78.4656 534.722C78.4656 535.812 80.8631 538.209 83.6966 540.17C88.7096 543.221 89.5815 543.221 98.5179 538.427C103.749 535.594 111.595 532.107 115.955 530.582C120.314 529.274 124.455 526.442 125.109 524.481Z" fill="url(#paint0_linear_708_93)"/>
</g>
<defs>
<linearGradient id="paint0_linear_708_93" x1="747.627" y1="565.196" x2="125.169" y2="706.165" gradientUnits="userSpaceOnUse">
<stop stop-color="#4F772D"/>
<stop offset="1" stop-color="#90A955"/>
</linearGradient>
<clipPath id="clip0_708_93">
<rect width="720" height="706" fill="white"/>
</clipPath>
</defs>
</svg>
